<?xml version="1.0" encoding="UTF-8" standalone="no"?>
<!DOCTYPE svg PUBLIC "-//W3C//DTD SVG 1.1//EN" "http://www.w3.org/Graphics/SVG/1.1/DTD/svg11.dtd">
<svg xmlns="http://www.w3.org/2000/svg" version="1.1" viewBox="0.00 0.00 768.00 768.00">
<g stroke-width="2.00" fill="none" stroke-linecap="butt">
<path stroke="#b3b3b3" vector-effect="non-scaling-stroke" d="
  M 327.44 172.16
  Q 326.78 172.35 326.30 172.70"
/>
<path stroke="#8b8c8c" vector-effect="non-scaling-stroke" d="
  M 326.30 172.70
  Q 323.78 172.87 321.46 174.28"
/>
<path stroke="#b3b3b3" vector-effect="non-scaling-stroke" d="
  M 321.46 174.28
  Q 320.20 174.42 319.32 174.96"
/>
<path stroke="#8b8c8c" vector-effect="non-scaling-stroke" d="
  M 319.32 174.96
  L 306.73 179.41"
/>
<path stroke="#b3b3b3" vector-effect="non-scaling-stroke" d="
  M 306.73 179.41
  L 304.69 180.36"
/>
<path stroke="#8b8c8c" vector-effect="non-scaling-stroke" d="
  M 304.69 180.36
  Q 302.12 180.85 300.13 182.34"
/>
<path stroke="#b3b3b3" vector-effect="non-scaling-stroke" d="
  M 300.13 182.34
  L 295.42 184.38"
/>
<path stroke="#8b8c8c" vector-effect="non-scaling-stroke" d="
  M 295.42 184.38
  Q 254.01 204.58 223.86 241.38
  C 192.80 279.29 177.06 327.08 176.28 375.66
  C 176.08 388.41 177.42 397.25 178.31 407.93
  Q 178.55 410.79 179.70 408.16
  Q 179.77 408.02 180.50 407.00
  Q 201.53 377.65 235.01 363.77
  Q 235.78 363.45 236.04 362.65
  L 250.90 315.49
  A 0.27 0.27 0.0 0 1 251.42 315.49
  C 251.90 317.19 251.72 319.38 251.97 320.84
  Q 257.01 350.17 262.15 379.57
  Q 262.25 380.12 261.69 380.04
  Q 245.34 377.63 231.06 384.56
  C 211.23 394.19 195.28 410.70 183.24 429.20
  A 1.14 1.11 -38.1 0 0 183.11 430.17
  L 186.23 439.52
  Q 186.62 440.70 187.25 439.63
  C 202.20 414.57 236.12 376.68 269.53 393.59
  C 284.71 401.27 291.97 415.33 299.75 429.52
  Q 306.28 441.43 314.83 450.73"
/>
<path stroke="#b3b3b3" vector-effect="non-scaling-stroke" d="
  M 314.83 450.73
  Q 320.52 458.36 328.10 463.96"
/>
<path stroke="#8b8c8c" vector-effect="non-scaling-stroke" d="
  M 328.10 463.96
  Q 332.30 468.34 339.47 472.22
  A 3.49 3.48 -58.1 0 0 343.98 471.17
  L 344.45 470.50
  Q 346.92 466.99 343.40 464.54
  Q 318.23 447.06 304.85 419.92
  C 278.24 365.97 271.24 281.99 329.33 243.59
  C 350.85 229.36 377.63 224.42 402.00 228.75
  C 438.55 235.25 467.12 261.66 477.73 297.00
  C 487.21 328.55 483.80 362.74 474.07 393.87
  C 464.98 422.95 449.76 447.71 424.14 465.11
  A 3.09 3.09 0.0 0 0 423.56 469.73
  L 424.29 470.54
  A 5.00 4.99 -38.1 0 0 430.86 471.33
  C 448.17 459.38 460.59 444.65 470.24 426.96
  Q 474.94 418.35 475.62 417.28
  C 490.02 394.51 511.22 382.67 537.56 396.11
  C 555.74 405.38 570.81 422.15 581.47 439.31
  A 0.37 0.37 0.0 0 0 582.14 439.22
  L 584.89 430.02
  A 2.31 2.30 -53.6 0 0 584.60 428.08
  C 569.30 405.30 542.92 380.51 513.91 380.29
  C 511.57 380.27 508.91 380.75 506.38 381.02
  Q 505.86 381.08 505.95 380.55
  L 516.92 315.44
  Q 516.98 315.14 517.07 315.44
  L 532.05 362.98
  A 3.23 3.21 -88.9 0 0 534.02 365.04
  Q 549.90 370.83 563.52 381.44
  Q 577.67 392.46 590.16 408.64
  Q 590.23 408.72 590.24 408.62
  Q 592.46 389.16 592.16 369.50
  Q 592.05 362.20 589.28 342.12
  Q 589.19 341.50 588.80 340.44
  C 588.34 339.16 588.33 337.13 588.18 336.31
  C 576.54 274.72 538.63 221.39 484.32 190.14
  Q 470.36 182.11 455.17 176.71
  C 451.70 175.47 448.29 173.89 444.79 172.82
  Q 386.30 154.99 327.44 172.16"
/>
<path stroke="#3f4040" vector-effect="non-scaling-stroke" d="
  M 328.10 463.96
  Q 326.19 452.37 314.83 450.73"
/>
<path stroke="#3f4040" vector-effect="non-scaling-stroke" d="
  M 295.42 184.38
  Q 303.38 194.65 314.32 189.97
  C 320.30 187.41 323.54 182.17 323.01 175.75
  Q 322.93 174.90 321.95 174.95
  Q 321.57 174.97 321.42 174.63
  Q 321.34 174.45 321.46 174.28"
/>
<path stroke="#3f4040" vector-effect="non-scaling-stroke" d="
  M 326.30 172.70
  Q 326.02 173.34 325.41 173.83
  Q 325.02 174.13 325.07 174.62
  Q 325.24 176.62 325.10 178.56
  C 324.90 181.33 323.29 183.65 322.67 186.21
  Q 321.95 189.14 324.29 187.24
  C 327.39 184.72 329.36 179.61 329.30 175.47
  Q 329.26 173.35 327.44 172.16"
/>
<path stroke="#3f4040" vector-effect="non-scaling-stroke" d="
  M 300.13 182.34
  C 305.95 188.73 319.22 188.30 317.88 177.14
  Q 317.82 176.66 318.18 176.34
  Q 318.91 175.69 319.32 174.96"
/>
<path stroke="#3f4040" vector-effect="non-scaling-stroke" d="
  M 304.69 180.36
  C 306.55 184.63 311.61 183.93 314.50 181.38
  A 1.93 1.92 61.7 0 0 315.08 179.44
  L 314.87 178.65
  Q 314.60 177.64 313.68 178.14
  C 311.68 179.24 308.87 182.07 306.73 179.41"
/>
<path stroke="#8b8c8c" vector-effect="non-scaling-stroke" d="
  M 394.91 285.90
  A 10.30 10.30 0.0 0 0 384.61 275.60
  A 10.30 10.30 0.0 0 0 374.31 285.90
  A 10.30 10.30 0.0 0 0 384.61 296.20
  A 10.30 10.30 0.0 0 0 394.91 285.90"
/>
<path stroke="#8b8c8c" vector-effect="non-scaling-stroke" d="
  M 314.56 314.14
  C 317.76 314.19 320.67 313.53 323.78 314.09
  C 328.11 314.86 332.80 315.54 336.68 316.90
  C 349.52 321.41 360.18 332.60 366.73 344.04
  Q 368.21 346.62 367.79 343.67
  Q 365.79 329.33 354.73 317.78
  C 339.44 301.81 314.92 304.36 298.28 316.03
  Q 297.89 316.30 297.82 316.61
  A 0.34 0.34 0.0 0 0 298.24 317.02
  Q 304.95 315.23 311.88 314.68
  C 312.67 314.62 313.55 314.12 314.56 314.14"
/>
<path stroke="#b3b3b3" vector-effect="non-scaling-stroke" d="
  M 441.09 314.50
  L 445.96 313.78"
/>
<path stroke="#8b8c8c" vector-effect="non-scaling-stroke" d="
  M 445.96 313.78
  L 455.59 314.03"
/>
<path stroke="#b3b3b3" vector-effect="non-scaling-stroke" d="
  M 455.59 314.03
  L 463.09 315.26"
/>
<path stroke="#8b8c8c" vector-effect="non-scaling-stroke" d="
  M 463.09 315.26
  L 470.19 316.70
  Q 470.94 316.85 470.36 316.35
  Q 462.85 309.76 454.13 308.55"
/>
<path stroke="#b3b3b3" vector-effect="non-scaling-stroke" d="
  M 454.13 308.55
  L 448.00 306.89"
/>
<path stroke="#8b8c8c" vector-effect="non-scaling-stroke" d="
  M 448.00 306.89
  Q 431.76 304.58 418.99 313.70
  C 407.91 321.62 403.32 332.46 400.25 345.61
  Q 400.25 345.63 400.27 345.63
  Q 400.39 345.68 400.52 345.72
  Q 400.87 345.86 401.07 345.53
  C 410.29 330.42 423.19 317.64 441.09 314.50"
/>
<path stroke="#3f4040" vector-effect="non-scaling-stroke" d="
  M 448.00 306.89
  Q 448.16 307.37 448.13 307.65
  Q 448.11 307.93 447.64 308.00
  Q 441.65 308.90 441.09 314.50"
/>
<path stroke="#3f4040" vector-effect="non-scaling-stroke" d="
  M 454.13 308.55
  L 445.96 313.78"
/>
<path stroke="#3f4040" vector-effect="non-scaling-stroke" d="
  M 463.09 315.26
  Q 459.11 312.20 455.59 314.03"
/>
<path stroke="#8b8c8c" vector-effect="non-scaling-stroke" d="
  M 384.14 338.39
  C 381.48 364.80 381.52 390.83 384.02 417.25
  Q 384.08 417.86 384.20 418.12
  Q 384.68 419.10 384.79 418.01
  Q 388.79 378.27 384.86 338.20
  Q 384.84 338.01 384.74 337.93
  Q 384.56 337.80 384.27 338.10
  A 0.45 0.45 0.0 0 0 384.14 338.39"
/>
<path stroke="#8b8c8c" vector-effect="non-scaling-stroke" d="
  M 301.52 348.50
  C 316.69 358.20 335.03 359.34 351.21 352.13
  Q 355.37 350.28 359.56 348.27
  Q 359.86 348.13 359.74 347.81
  L 359.63 347.56
  Q 359.51 347.25 359.19 347.35
  Q 357.44 347.93 355.72 348.23
  C 338.38 351.24 318.99 351.77 301.82 347.54
  Q 301.40 347.43 301.26 347.84
  Q 301.21 348.01 301.28 348.22
  Q 301.34 348.38 301.52 348.50"
/>
<path stroke="#8b8c8c" vector-effect="non-scaling-stroke" d="
  M 409.39 348.69
  C 422.42 355.35 434.51 358.83 449.25 355.50
  Q 458.23 353.48 465.86 348.95
  Q 469.05 347.05 465.41 347.80
  Q 441.73 352.65 416.05 349.14
  Q 412.58 348.67 409.45 347.40
  A 0.26 0.25 17.9 0 0 409.10 347.57
  L 409.02 347.87
  A 0.71 0.71 0.0 0 0 409.39 348.69"
/>
<path stroke="#b3b3b3" vector-effect="non-scaling-stroke" d="
  M 294.62 460.62
  L 297.94 464.85"
/>
<path stroke="#8b8c8c" vector-effect="non-scaling-stroke" d="
  M 297.94 464.85
  Q 299.51 467.67 302.74 470.48"
/>
<path stroke="#b3b3b3" vector-effect="non-scaling-stroke" d="
  M 302.74 470.48
  Q 303.75 472.44 305.90 473.80"
/>
<path stroke="#8b8c8c" vector-effect="non-scaling-stroke" d="
  M 305.90 473.80
  Q 308.32 477.31 311.16 479.21"
/>
<path stroke="#b3b3b3" vector-effect="non-scaling-stroke" d="
  M 311.16 479.21
  L 313.95 481.90"
/>
<path stroke="#8b8c8c" vector-effect="non-scaling-stroke" d="
  M 313.95 481.90
  Q 327.21 493.68 343.50 501.03
  C 391.78 522.83 442.55 502.66 473.11 462.38
  Q 480.82 452.22 487.35 441.26
  Q 490.28 436.33 493.37 433.10
  Q 505.51 420.41 523.29 424.34
  C 543.18 428.73 561.70 448.42 571.05 465.80
  A 0.37 0.37 0.0 0 0 571.72 465.78
  L 575.69 456.90
  A 1.61 1.60 40.1 0 0 575.55 455.35
  C 565.14 439.86 549.27 423.21 531.99 417.06
  C 514.20 410.73 495.69 414.63 484.16 430.17
  Q 478.15 438.27 474.93 444.48
  Q 472.69 448.80 462.11 462.11
  Q 453.64 472.77 439.17 482.89
  C 402.59 508.47 354.33 505.76 320.77 476.10
  C 315.40 471.35 309.59 466.47 305.40 460.58
  Q 304.22 458.92 302.86 457.49"
/>
<path stroke="#b3b3b3" vector-effect="non-scaling-stroke" d="
  M 302.86 457.49
  L 300.13 453.65"
/>
<path stroke="#8b8c8c" vector-effect="non-scaling-stroke" d="
  M 300.13 453.65
  C 298.10 450.74 296.01 447.93 294.25 444.88
  C 288.29 434.61 283.85 426.61 276.68 420.57
  C 260.30 406.77 238.75 411.20 222.66 423.17
  C 209.93 432.64 201.48 443.27 192.84 456.08
  A 1.80 1.80 0.0 0 0 192.73 457.90
  L 196.94 466.13
  A 0.51 0.50 38.7 0 0 197.88 466.03
  Q 198.02 465.49 198.57 464.56
  C 206.70 450.75 215.67 439.54 229.43 429.70
  C 242.74 420.18 260.69 417.29 273.03 429.13
  Q 276.24 432.20 281.54 440.67
  C 285.76 447.40 289.42 454.15 294.62 460.62"
/>
<path stroke="#3f4040" vector-effect="non-scaling-stroke" d="
  M 300.13 453.65
  Q 296.08 455.80 294.62 460.62"
/>
<path stroke="#3f4040" vector-effect="non-scaling-stroke" d="
  M 313.95 481.90
  Q 317.12 480.75 319.70 478.39
  Q 320.87 477.32 319.73 476.23
  L 318.94 475.47
  Q 317.82 474.40 316.56 475.31
  L 311.16 479.21"
/>
<path stroke="#3f4040" vector-effect="non-scaling-stroke" d="
  M 305.90 473.80
  Q 311.29 477.21 314.22 473.12
  A 1.31 1.31 0.0 0 0 313.79 471.21
  Q 312.56 470.53 311.85 469.36
  A 0.44 0.44 0.0 0 0 311.03 469.55
  Q 310.96 470.29 311.24 470.98
  A 0.71 0.70 -35.2 0 1 311.10 471.74
  C 309.00 474.02 306.87 471.62 306.42 469.54
  C 305.74 466.46 308.78 464.76 305.10 461.82
  A 0.94 0.93 -49.6 0 0 303.83 461.93
  Q 301.11 464.95 302.74 470.48"
/>
<path stroke="#3f4040" vector-effect="non-scaling-stroke" d="
  M 297.94 464.85
  L 301.83 458.66
  Q 301.94 458.48 301.95 458.28
  Q 301.96 458.13 301.99 457.99
  Q 302.03 457.68 302.23 457.61
  Q 302.45 457.53 302.86 457.49"
/>
<path stroke="#8b8c8c" vector-effect="non-scaling-stroke" d="
  M 371.71 427.45
  Q 364.74 431.34 358.28 436.08
  Q 357.77 436.46 358.31 436.79
  C 362.70 439.49 368.13 442.28 372.22 443.97
  C 386.17 449.73 398.25 443.94 410.07 436.53
  A 0.38 0.37 47.2 0 0 410.09 435.91
  Q 404.69 432.00 399.16 428.62
  C 392.82 424.76 390.34 426.16 384.76 429.45
  Q 384.30 429.71 383.85 429.44
  C 379.89 426.99 376.14 424.98 371.71 427.45"
/>
<path stroke="#8b8c8c" vector-effect="non-scaling-stroke" d="
  M 485.62 468.37
  C 454.72 513.40 402.52 537.86 348.77 519.70
  C 322.14 510.70 299.64 491.27 284.03 468.22
  C 276.45 457.01 266.86 439.69 249.97 444.01
  A 0.97 0.97 0.0 0 0 249.49 445.61
  C 254.60 451.19 261.71 452.41 267.00 457.66
  Q 269.29 459.93 273.71 466.95
  C 293.73 498.69 323.76 524.63 361.73 532.14
  C 411.36 541.95 457.89 518.57 487.66 479.42
  C 493.57 471.64 498.69 459.99 509.20 455.25
  C 512.96 453.54 516.89 451.99 519.66 448.86
  A 1.22 1.22 0.0 0 0 518.96 446.85
  Q 515.61 446.27 512.50 446.66
  C 498.35 448.41 493.24 457.26 485.62 468.37"
/>
<path stroke="#8b8c8c" vector-effect="non-scaling-stroke" d="
  M 371.66 555.76
  C 427.75 561.03 476.84 531.06 507.68 485.73
  Q 509.79 482.63 506.80 480.37
  L 506.07 479.82
  A 2.91 2.90 36.0 0 0 501.95 480.47
  C 479.03 513.08 447.93 537.59 408.75 545.50
  Q 369.35 553.44 331.48 535.94
  C 305.31 523.84 283.50 503.09 266.95 479.03
  A 2.58 2.57 50.3 0 0 263.01 478.66
  L 262.30 479.36
  Q 259.55 482.08 261.79 485.23
  C 288.61 523.03 324.73 551.34 371.66 555.76"
/>
<path stroke="#8b8c8c" vector-effect="non-scaling-stroke" d="
  M 407.12 576.12
  C 444.52 570.43 476.73 552.45 502.64 523.75
  Q 505.10 521.02 502.47 518.46
  L 501.83 517.83
  A 2.87 2.86 -46.4 0 0 497.73 517.93
  C 456.73 561.79 399.04 580.79 341.46 562.99
  C 317.66 555.62 295.37 541.11 277.86 523.49
  Q 275.03 520.64 271.29 517.24
  A 2.53 2.52 -49.4 0 0 267.64 517.52
  L 267.14 518.13
  Q 265.05 520.71 267.22 523.22
  C 302.29 563.64 354.06 584.21 407.12 576.12"
/>
<path stroke="#8b8c8c" vector-effect="non-scaling-stroke" d="
  M 450.12 177.92
  L 450.33 176.73
  A 0.31 0.31 0.0 0 0 449.78 176.48
  C 448.09 178.62 450.90 180.34 452.04 181.57
  Q 453.82 183.49 452.63 181.16
  Q 452.52 180.96 451.32 180.35
  A 2.26 2.25 -71.4 0 1 450.12 177.92"
/>
<path stroke="#8b8c8c" vector-effect="non-scaling-stroke" d="
  M 456.0348 179.2035
  A 1.39 0.32 40.0 0 0 455.1757 178.0649
  A 1.39 0.32 40.0 0 0 453.9052 177.4165
  A 1.39 0.32 40.0 0 0 454.7643 178.5551
  A 1.39 0.32 40.0 0 0 456.0348 179.2035"
/>
<path stroke="#8b8c8c" vector-effect="non-scaling-stroke" d="
  M 444.24 182.17
  C 441.77 184.39 444.01 187.68 447.26 187.64
  Q 448.17 187.63 448.48 187.12
  Q 448.82 186.56 448.21 186.80
  Q 445.60 187.83 443.95 185.70
  A 2.20 2.20 0.0 0 1 445.04 182.25
  C 447.34 181.54 448.44 183.76 450.13 184.82
  Q 450.27 184.91 450.37 184.78
  L 450.38 184.77
  Q 450.47 184.64 450.31 184.49
  L 447.71 182.17
  A 2.61 2.60 44.9 0 0 444.24 182.17"
/>
<path stroke="#8b8c8c" vector-effect="non-scaling-stroke" d="
  M 437.89 191.49
  Q 436.62 189.74 438.26 188.56
  Q 439.71 187.52 440.02 189.28
  L 440.15 189.98
  Q 440.30 190.81 440.38 189.97
  Q 440.48 188.89 440.28 187.83
  Q 440.19 187.38 439.74 187.45
  C 436.01 188.06 436.73 192.77 439.54 193.50
  C 441.81 194.09 442.41 192.87 444.03 191.67
  Q 444.47 191.34 444.47 190.80
  Q 444.48 190.08 443.99 190.60
  C 442.05 192.64 440.25 194.75 437.89 191.49"
/>
<path stroke="#8b8c8c" vector-effect="non-scaling-stroke" d="
  M 433.43 192.56
  C 432.12 194.86 435.15 197.52 436.73 198.72
  Q 436.88 198.83 437.00 198.69
  L 437.00 198.69
  Q 437.13 198.55 437.00 198.41
  C 435.69 197.08 432.93 195.07 434.02 193.01
  Q 434.13 192.79 433.92 192.65
  L 433.70 192.50
  Q 433.53 192.39 433.43 192.56"
/>
<path stroke="#8b8c8c" vector-effect="non-scaling-stroke" d="
  M 432.17 202.28
  A 2.26 2.26 0.0 0 1 429.07 202.96
  Q 426.54 201.36 428.19 198.82
  Q 428.38 198.53 428.05 198.43
  L 427.72 198.33
  Q 427.57 198.29 427.51 198.42
  Q 425.69 202.11 429.03 203.67
  Q 430.83 204.51 432.33 203.19
  C 435.39 200.49 429.35 195.73 427.60 194.06
  Q 427.45 193.92 427.29 194.05
  L 427.08 194.23
  Q 427.00 194.29 427.07 194.36
  C 428.69 196.15 433.77 199.81 432.17 202.28"
/>
<path stroke="#3f4040" vector-effect="non-scaling-stroke" d="
  M 483.96 219.97
  L 476.65 227.21
  Q 476.62 227.24 476.75 227.36
  L 476.75 227.36
  Q 476.85 227.46 476.96 227.36
  Q 480.50 223.74 484.26 220.35
  Q 484.36 220.26 484.27 220.17
  L 484.08 219.97
  Q 484.02 219.91 483.96 219.97"
/>
<path stroke="#8b8c8c" vector-effect="non-scaling-stroke" d="
  M 254.61 281.50
  A 5.03 5.03 0.0 0 0 249.58 276.47
  A 5.03 5.03 0.0 0 0 244.55 281.50
  A 5.03 5.03 0.0 0 0 249.58 286.53
  A 5.03 5.03 0.0 0 0 254.61 281.50"
/>
<path stroke="#8b8c8c" vector-effect="non-scaling-stroke" d="
  M 523.74 281.46
  A 5.03 5.03 0.0 0 0 518.71 276.43
  A 5.03 5.03 0.0 0 0 513.68 281.46
  A 5.03 5.03 0.0 0 0 518.71 286.49
  A 5.03 5.03 0.0 0 0 523.74 281.46"
/>
<path stroke="#3f4040" vector-effect="non-scaling-stroke" d="
  M 497.0194 279.9040
  A 2.16 0.25 135.5 0 0 498.7352 278.5683
  A 2.16 0.25 135.5 0 0 500.1006 276.8760
  A 2.16 0.25 135.5 0 0 498.3848 278.2117
  A 2.16 0.25 135.5 0 0 497.0194 279.9040"
/>
<path stroke="#3f4040" vector-effect="non-scaling-stroke" d="
  M 585.90 336.11
  L 586.23 337.48
  A 0.30 0.28 -88.5 0 0 586.41 337.68
  Q 586.59 337.73 586.77 337.78
  A 0.34 0.33 9.6 0 0 587.20 337.48
  Q 587.32 335.50 586.49 333.80
  Q 586.22 333.25 585.66 333.48
  C 581.27 335.31 582.93 340.75 587.37 340.71
  A 0.55 0.54 77.0 0 0 587.85 339.93
  L 587.68 339.56
  Q 587.41 338.99 586.80 338.89
  Q 584.51 338.52 585.19 336.10
  A 0.37 0.37 0.0 0 1 585.90 336.11"
/>
<path stroke="#3f4040" vector-effect="non-scaling-stroke" d="
  M 580.66 340.39
  Q 581.16 339.49 580.89 338.58
  A 0.45 0.45 0.0 0 0 580.07 338.48
  L 579.05 340.23
  Q 578.79 340.67 579.03 341.11
  Q 580.49 343.86 582.92 345.79
  A 0.47 0.47 0.0 0 0 583.61 345.67
  L 583.78 345.39
  A 0.84 0.84 0.0 0 0 583.67 344.37
  L 580.78 341.38
  A 0.83 0.83 0.0 0 1 580.66 340.39"
/>
<path stroke="#3f4040" vector-effect="non-scaling-stroke" d="
  M 284.27 343.20
  C 284.08 341.96 283.13 340.48 281.89 340.35
  A 0.48 0.47 -11.2 0 0 281.42 341.05
  Q 282.25 342.59 283.74 343.54
  Q 284.39 343.97 284.27 343.20"
/>
<path stroke="#3f4040" vector-effect="non-scaling-stroke" d="
  M 579.99 346.75
  Q 579.80 345.65 579.00 344.86
  L 574.45 340.37
  Q 573.94 339.87 573.48 340.40
  L 573.27 340.64
  Q 573.03 340.93 573.29 341.21
  C 574.63 342.64 578.14 345.41 578.64 346.92
  Q 579.13 348.38 577.35 349.35
  A 1.22 1.20 45.5 0 1 576.17 349.33
  Q 573.94 348.03 575.05 345.61
  Q 575.32 345.03 574.81 344.65
  L 574.50 344.43
  A 0.59 0.59 0.0 0 0 573.62 344.65
  C 570.33 351.25 581.16 353.36 579.99 346.75"
/>
<path stroke="#3f4040" vector-effect="non-scaling-stroke" d="
  M 283.89 349.25
  Q 282.19 347.59 283.17 345.63
  Q 283.50 344.96 282.84 344.60
  L 282.48 344.41
  A 0.58 0.58 0.0 0 0 281.69 344.67
  Q 279.54 349.02 283.73 350.43
  Q 284.47 350.68 284.80 350.15
  Q 284.95 349.91 284.70 349.78
  L 284.37 349.60
  A 2.33 2.08 77.9 0 1 283.89 349.25"
/>
<path stroke="#3f4040" vector-effect="non-scaling-stroke" d="
  M 318.93 309.45
  Q 319.44 309.12 319.14 308.80
  A 0.34 0.33 43.4 0 0 318.64 308.81
  Q 317.76 309.90 316.34 309.94
  Q 315.60 309.96 316.10 310.51
  Q 317.13 311.63 318.51 312.29
  Q 319.10 312.57 318.86 311.97
  Q 318.48 311.03 318.58 310.03
  Q 318.62 309.66 318.93 309.45"
/>
<path stroke="#3f4040" vector-effect="non-scaling-stroke" d="
  M 323.58 312.24
  Q 323.94 310.95 323.28 310.21
  Q 322.98 309.87 322.56 309.87
  Q 321.91 309.85 322.11 310.47
  Q 322.43 311.53 323.20 312.34
  A 0.23 0.22 -59.2 0 0 323.58 312.24"
/>
<path stroke="#3f4040" vector-effect="non-scaling-stroke" d="
  M 483.09 438.53
  L 483.09 439.52
  Q 483.09 439.96 483.53 439.93
  L 483.91 439.90
  A 0.36 0.36 0.0 0 0 484.24 439.49
  L 483.94 436.76
  A 1.14 1.13 -17.5 0 0 482.26 435.89
  C 476.01 439.39 483.93 446.54 486.23 441.03
  Q 486.59 440.16 485.70 440.46
  Q 484.77 440.78 484.04 441.47
  A 0.70 0.69 -54.3 0 1 483.28 441.60
  Q 481.38 440.75 481.23 438.68
  A 0.76 0.75 4.4 0 1 482.15 437.90
  Q 482.38 437.96 482.61 437.98
  Q 483.09 438.04 483.09 438.53"
/>
<path stroke="#3f4040" vector-effect="non-scaling-stroke" d="
  M 481.6589 446.5567
  A 0.61 0.61 0.0 0 0 481.6348 445.6944
  L 478.1908 442.4376
  A 0.61 0.61 0.0 0 0 477.3285 442.4617
  L 477.0811 442.7233
  A 0.61 0.61 0.0 0 0 477.1052 443.5856
  L 480.5492 446.8424
  A 0.61 0.61 0.0 0 0 481.4115 446.8183
  L 481.6589 446.5567"
/>
<path stroke="#3f4040" vector-effect="non-scaling-stroke" d="
  M 476.5543 445.7557
  A 0.82 0.82 0.0 0 0 475.3969 445.6829
  L 475.2169 445.8416
  A 0.82 0.82 0.0 0 0 475.1441 446.9989
  L 477.4057 449.5643
  A 0.82 0.82 0.0 0 0 478.5631 449.6371
  L 478.7431 449.4784
  A 0.82 0.82 0.0 0 0 478.8159 448.3211
  L 476.5543 445.7557"
/>
<path stroke="#3f4040" vector-effect="non-scaling-stroke" d="
  M 475.68 451.37
  Q 475.14 450.38 474.65 449.77
  Q 474.20 449.19 473.64 449.20
  Q 473.19 449.21 472.83 449.53
  Q 472.43 449.89 472.67 450.37
  Q 473.56 452.13 474.89 452.42
  Q 476.44 452.77 475.68 451.37"
/>
<path stroke="#3f4040" vector-effect="non-scaling-stroke" d="
  M 473.0500 455.0757
  A 1.66 0.91 42.7 0 0 472.4471 453.2812
  A 1.66 0.91 42.7 0 0 470.6100 452.8243
  A 1.66 0.91 42.7 0 0 471.2129 454.6188
  A 1.66 0.91 42.7 0 0 473.0500 455.0757"
/>
<path stroke="#3f4040" vector-effect="non-scaling-stroke" d="
  M 469.53 456.86
  Q 469.45 456.19 469.06 455.85
  A 0.58 0.58 0.0 0 0 468.10 456.21
  Q 467.91 457.87 466.69 458.82
  Q 465.16 460.02 467.10 460.09
  Q 469.93 460.21 469.53 456.86"
/>
<path stroke="#8b8c8c" vector-effect="non-scaling-stroke" d="
  M 460.7809 466.3848
  A 1.39 0.54 128.7 0 0 462.0714 465.6376
  A 1.39 0.54 128.7 0 0 462.5191 464.2152
  A 1.39 0.54 128.7 0 0 461.2286 464.9624
  A 1.39 0.54 128.7 0 0 460.7809 466.3848"
/>
<path stroke="#3f4040" vector-effect="non-scaling-stroke" d="
  M 458.42 467.96
  Q 457.84 468.34 458.00 468.94
  A 0.58 0.57 43.9 0 0 459.12 468.92
  Q 459.21 468.52 459.07 468.16
  A 0.44 0.44 0.0 0 0 458.42 467.96"
/>
<path stroke="#3f4040" vector-effect="non-scaling-stroke" d="
  M 449.79 476.37
  C 448.55 478.11 447.19 478.17 445.94 479.52
  Q 445.68 479.80 446.03 479.95
  C 448.17 480.88 449.13 478.29 450.70 477.42
  Q 451.49 476.98 450.96 476.33
  A 0.74 0.74 0.0 0 0 449.79 476.37"
/>
<path stroke="#3f4040" vector-effect="non-scaling-stroke" d="
  M 440.35 484.66
  L 439.04 484.75
  Q 438.58 484.78 438.77 485.20
  C 440.00 487.97 443.94 484.22 444.63 482.89
  Q 445.10 482.00 444.17 482.39
  Q 443.22 482.80 441.23 484.33
  Q 440.84 484.63 440.35 484.66"
/>
<path stroke="#3f4040" vector-effect="non-scaling-stroke" d="
  M 437.0952 490.7730
  A 2.41 0.76 45.3 0 0 435.9402 488.5254
  A 2.41 0.76 45.3 0 0 433.7048 487.3470
  A 2.41 0.76 45.3 0 0 434.8598 489.5946
  A 2.41 0.76 45.3 0 0 437.0952 490.7730"
/>
<path stroke="#3f4040" vector-effect="non-scaling-stroke" d="
  M 429.71 494.61
  Q 427.88 494.23 427.94 491.71
  A 0.39 0.39 0.0 0 0 427.32 491.38
  L 426.96 491.65
  Q 426.46 492.02 426.52 492.63
  C 426.93 497.05 432.84 498.05 433.49 493.38
  Q 433.89 490.51 430.72 489.70
  A 0.27 0.26 -9.3 0 0 430.43 490.10
  Q 431.82 492.15 431.74 493.39
  Q 431.65 495.01 429.71 494.61"
/>
</g>
<path fill="#ffffff" d="
  M 0.00 0.00
  L 768.00 0.00
  L 768.00 768.00
  L 0.00 768.00
  L 0.00 0.00
  Z
  M 327.44 172.16
  Q 326.78 172.35 326.30 172.70
  Q 323.78 172.87 321.46 174.28
  Q 320.20 174.42 319.32 174.96
  L 306.73 179.41
  L 304.69 180.36
  Q 302.12 180.85 300.13 182.34
  L 295.42 184.38
  Q 254.01 204.58 223.86 241.38
  C 192.80 279.29 177.06 327.08 176.28 375.66
  C 176.08 388.41 177.42 397.25 178.31 407.93
  Q 178.55 410.79 179.70 408.16
  Q 179.77 408.02 180.50 407.00
  Q 201.53 377.65 235.01 363.77
  Q 235.78 363.45 236.04 362.65
  L 250.90 315.49
  A 0.27 0.27 0.0 0 1 251.42 315.49
  C 251.90 317.19 251.72 319.38 251.97 320.84
  Q 257.01 350.17 262.15 379.57
  Q 262.25 380.12 261.69 380.04
  Q 245.34 377.63 231.06 384.56
  C 211.23 394.19 195.28 410.70 183.24 429.20
  A 1.14 1.11 -38.1 0 0 183.11 430.17
  L 186.23 439.52
  Q 186.62 440.70 187.25 439.63
  C 202.20 414.57 236.12 376.68 269.53 393.59
  C 284.71 401.27 291.97 415.33 299.75 429.52
  Q 306.28 441.43 314.83 450.73
  Q 320.52 458.36 328.10 463.96
  Q 332.30 468.34 339.47 472.22
  A 3.49 3.48 -58.1 0 0 343.98 471.17
  L 344.45 470.50
  Q 346.92 466.99 343.40 464.54
  Q 318.23 447.06 304.85 419.92
  C 278.24 365.97 271.24 281.99 329.33 243.59
  C 350.85 229.36 377.63 224.42 402.00 228.75
  C 438.55 235.25 467.12 261.66 477.73 297.00
  C 487.21 328.55 483.80 362.74 474.07 393.87
  C 464.98 422.95 449.76 447.71 424.14 465.11
  A 3.09 3.09 0.0 0 0 423.56 469.73
  L 424.29 470.54
  A 5.00 4.99 -38.1 0 0 430.86 471.33
  C 448.17 459.38 460.59 444.65 470.24 426.96
  Q 474.94 418.35 475.62 417.28
  C 490.02 394.51 511.22 382.67 537.56 396.11
  C 555.74 405.38 570.81 422.15 581.47 439.31
  A 0.37 0.37 0.0 0 0 582.14 439.22
  L 584.89 430.02
  A 2.31 2.30 -53.6 0 0 584.60 428.08
  C 569.30 405.30 542.92 380.51 513.91 380.29
  C 511.57 380.27 508.91 380.75 506.38 381.02
  Q 505.86 381.08 505.95 380.55
  L 516.92 315.44
  Q 516.98 315.14 517.07 315.44
  L 532.05 362.98
  A 3.23 3.21 -88.9 0 0 534.02 365.04
  Q 549.90 370.83 563.52 381.44
  Q 577.67 392.46 590.16 408.64
  Q 590.23 408.72 590.24 408.62
  Q 592.46 389.16 592.16 369.50
  Q 592.05 362.20 589.28 342.12
  Q 589.19 341.50 588.80 340.44
  C 588.34 339.16 588.33 337.13 588.18 336.31
  C 576.54 274.72 538.63 221.39 484.32 190.14
  Q 470.36 182.11 455.17 176.71
  C 451.70 175.47 448.29 173.89 444.79 172.82
  Q 386.30 154.99 327.44 172.16
  Z
  M 394.91 285.90
  A 10.30 10.30 0.0 0 0 384.61 275.60
  A 10.30 10.30 0.0 0 0 374.31 285.90
  A 10.30 10.30 0.0 0 0 384.61 296.20
  A 10.30 10.30 0.0 0 0 394.91 285.90
  Z
  M 314.56 314.14
  C 317.76 314.19 320.67 313.53 323.78 314.09
  C 328.11 314.86 332.80 315.54 336.68 316.90
  C 349.52 321.41 360.18 332.60 366.73 344.04
  Q 368.21 346.62 367.79 343.67
  Q 365.79 329.33 354.73 317.78
  C 339.44 301.81 314.92 304.36 298.28 316.03
  Q 297.89 316.30 297.82 316.61
  A 0.34 0.34 0.0 0 0 298.24 317.02
  Q 304.95 315.23 311.88 314.68
  C 312.67 314.62 313.55 314.12 314.56 314.14
  Z
  M 441.09 314.50
  L 445.96 313.78
  L 455.59 314.03
  L 463.09 315.26
  L 470.19 316.70
  Q 470.94 316.85 470.36 316.35
  Q 462.85 309.76 454.13 308.55
  L 448.00 306.89
  Q 431.76 304.58 418.99 313.70
  C 407.91 321.62 403.32 332.46 400.25 345.61
  Q 400.25 345.63 400.27 345.63
  Q 400.39 345.68 400.52 345.72
  Q 400.87 345.86 401.07 345.53
  C 410.29 330.42 423.19 317.64 441.09 314.50
  Z
  M 384.14 338.39
  C 381.48 364.80 381.52 390.83 384.02 417.25
  Q 384.08 417.86 384.20 418.12
  Q 384.68 419.10 384.79 418.01
  Q 388.79 378.27 384.86 338.20
  Q 384.84 338.01 384.74 337.93
  Q 384.56 337.80 384.27 338.10
  A 0.45 0.45 0.0 0 0 384.14 338.39
  Z
  M 301.52 348.50
  C 316.69 358.20 335.03 359.34 351.21 352.13
  Q 355.37 350.28 359.56 348.27
  Q 359.86 348.13 359.74 347.81
  L 359.63 347.56
  Q 359.51 347.25 359.19 347.35
  Q 357.44 347.93 355.72 348.23
  C 338.38 351.24 318.99 351.77 301.82 347.54
  Q 301.40 347.43 301.26 347.84
  Q 301.21 348.01 301.28 348.22
  Q 301.34 348.38 301.52 348.50
  Z
  M 409.39 348.69
  C 422.42 355.35 434.51 358.83 449.25 355.50
  Q 458.23 353.48 465.86 348.95
  Q 469.05 347.05 465.41 347.80
  Q 441.73 352.65 416.05 349.14
  Q 412.58 348.67 409.45 347.40
  A 0.26 0.25 17.9 0 0 409.10 347.57
  L 409.02 347.87
  A 0.71 0.71 0.0 0 0 409.39 348.69
  Z
  M 294.62 460.62
  L 297.94 464.85
  Q 299.51 467.67 302.74 470.48
  Q 303.75 472.44 305.90 473.80
  Q 308.32 477.31 311.16 479.21
  L 313.95 481.90
  Q 327.21 493.68 343.50 501.03
  C 391.78 522.83 442.55 502.66 473.11 462.38
  Q 480.82 452.22 487.35 441.26
  Q 490.28 436.33 493.37 433.10
  Q 505.51 420.41 523.29 424.34
  C 543.18 428.73 561.70 448.42 571.05 465.80
  A 0.37 0.37 0.0 0 0 571.72 465.78
  L 575.69 456.90
  A 1.61 1.60 40.1 0 0 575.55 455.35
  C 565.14 439.86 549.27 423.21 531.99 417.06
  C 514.20 410.73 495.69 414.63 484.16 430.17
  Q 478.15 438.27 474.93 444.48
  Q 472.69 448.80 462.11 462.11
  Q 453.64 472.77 439.17 482.89
  C 402.59 508.47 354.33 505.76 320.77 476.10
  C 315.40 471.35 309.59 466.47 305.40 460.58
  Q 304.22 458.92 302.86 457.49
  L 300.13 453.65
  C 298.10 450.74 296.01 447.93 294.25 444.88
  C 288.29 434.61 283.85 426.61 276.68 420.57
  C 260.30 406.77 238.75 411.20 222.66 423.17
  C 209.93 432.64 201.48 443.27 192.84 456.08
  A 1.80 1.80 0.0 0 0 192.73 457.90
  L 196.94 466.13
  A 0.51 0.50 38.7 0 0 197.88 466.03
  Q 198.02 465.49 198.57 464.56
  C 206.70 450.75 215.67 439.54 229.43 429.70
  C 242.74 420.18 260.69 417.29 273.03 429.13
  Q 276.24 432.20 281.54 440.67
  C 285.76 447.40 289.42 454.15 294.62 460.62
  Z
  M 371.71 427.45
  Q 364.74 431.34 358.28 436.08
  Q 357.77 436.46 358.31 436.79
  C 362.70 439.49 368.13 442.28 372.22 443.97
  C 386.17 449.73 398.25 443.94 410.07 436.53
  A 0.38 0.37 47.2 0 0 410.09 435.91
  Q 404.69 432.00 399.16 428.62
  C 392.82 424.76 390.34 426.16 384.76 429.45
  Q 384.30 429.71 383.85 429.44
  C 379.89 426.99 376.14 424.98 371.71 427.45
  Z
  M 485.62 468.37
  C 454.72 513.40 402.52 537.86 348.77 519.70
  C 322.14 510.70 299.64 491.27 284.03 468.22
  C 276.45 457.01 266.86 439.69 249.97 444.01
  A 0.97 0.97 0.0 0 0 249.49 445.61
  C 254.60 451.19 261.71 452.41 267.00 457.66
  Q 269.29 459.93 273.71 466.95
  C 293.73 498.69 323.76 524.63 361.73 532.14
  C 411.36 541.95 457.89 518.57 487.66 479.42
  C 493.57 471.64 498.69 459.99 509.20 455.25
  C 512.96 453.54 516.89 451.99 519.66 448.86
  A 1.22 1.22 0.0 0 0 518.96 446.85
  Q 515.61 446.27 512.50 446.66
  C 498.35 448.41 493.24 457.26 485.62 468.37
  Z
  M 371.66 555.76
  C 427.75 561.03 476.84 531.06 507.68 485.73
  Q 509.79 482.63 506.80 480.37
  L 506.07 479.82
  A 2.91 2.90 36.0 0 0 501.95 480.47
  C 479.03 513.08 447.93 537.59 408.75 545.50
  Q 369.35 553.44 331.48 535.94
  C 305.31 523.84 283.50 503.09 266.95 479.03
  A 2.58 2.57 50.3 0 0 263.01 478.66
  L 262.30 479.36
  Q 259.55 482.08 261.79 485.23
  C 288.61 523.03 324.73 551.34 371.66 555.76
  Z
  M 407.12 576.12
  C 444.52 570.43 476.73 552.45 502.64 523.75
  Q 505.10 521.02 502.47 518.46
  L 501.83 517.83
  A 2.87 2.86 -46.4 0 0 497.73 517.93
  C 456.73 561.79 399.04 580.79 341.46 562.99
  C 317.66 555.62 295.37 541.11 277.86 523.49
  Q 275.03 520.64 271.29 517.24
  A 2.53 2.52 -49.4 0 0 267.64 517.52
  L 267.14 518.13
  Q 265.05 520.71 267.22 523.22
  C 302.29 563.64 354.06 584.21 407.12 576.12
  Z"
/>
<path fill="#171819" d="
  M 328.10 463.96
  Q 326.19 452.37 314.83 450.73
  Q 306.28 441.43 299.75 429.52
  C 291.97 415.33 284.71 401.27 269.53 393.59
  C 236.12 376.68 202.20 414.57 187.25 439.63
  Q 186.62 440.70 186.23 439.52
  L 183.11 430.17
  A 1.14 1.11 -38.1 0 1 183.24 429.20
  C 195.28 410.70 211.23 394.19 231.06 384.56
  Q 245.34 377.63 261.69 380.04
  Q 262.25 380.12 262.15 379.57
  Q 257.01 350.17 251.97 320.84
  C 251.72 319.38 251.90 317.19 251.42 315.49
  A 0.27 0.27 0.0 0 0 250.90 315.49
  L 236.04 362.65
  Q 235.78 363.45 235.01 363.77
  Q 201.53 377.65 180.50 407.00
  Q 179.77 408.02 179.70 408.16
  Q 178.55 410.79 178.31 407.93
  C 177.42 397.25 176.08 388.41 176.28 375.66
  C 177.06 327.08 192.80 279.29 223.86 241.38
  Q 254.01 204.58 295.42 184.38
  Q 303.38 194.65 314.32 189.97
  C 320.30 187.41 323.54 182.17 323.01 175.75
  Q 322.93 174.90 321.95 174.95
  Q 321.57 174.97 321.42 174.63
  Q 321.34 174.45 321.46 174.28
  Q 323.78 172.87 326.30 172.70
  Q 326.02 173.34 325.41 173.83
  Q 325.02 174.13 325.07 174.62
  Q 325.24 176.62 325.10 178.56
  C 324.90 181.33 323.29 183.65 322.67 186.21
  Q 321.95 189.14 324.29 187.24
  C 327.39 184.72 329.36 179.61 329.30 175.47
  Q 329.26 173.35 327.44 172.16
  Q 386.30 154.99 444.79 172.82
  C 448.29 173.89 451.70 175.47 455.17 176.71
  Q 470.36 182.11 484.32 190.14
  C 538.63 221.39 576.54 274.72 588.18 336.31
  C 588.33 337.13 588.34 339.16 588.80 340.44
  Q 589.19 341.50 589.28 342.12
  Q 592.05 362.20 592.16 369.50
  Q 592.46 389.16 590.24 408.62
  Q 590.23 408.72 590.16 408.64
  Q 577.67 392.46 563.52 381.44
  Q 549.90 370.83 534.02 365.04
  A 3.23 3.21 -88.9 0 1 532.05 362.98
  L 517.07 315.44
  Q 516.98 315.14 516.92 315.44
  L 505.95 380.55
  Q 505.86 381.08 506.38 381.02
  C 508.91 380.75 511.57 380.27 513.91 380.29
  C 542.92 380.51 569.30 405.30 584.60 428.08
  A 2.31 2.30 -53.6 0 1 584.89 430.02
  L 582.14 439.22
  A 0.37 0.37 0.0 0 1 581.47 439.31
  C 570.81 422.15 555.74 405.38 537.56 396.11
  C 511.22 382.67 490.02 394.51 475.62 417.28
  Q 474.94 418.35 470.24 426.96
  C 460.59 444.65 448.17 459.38 430.86 471.33
  A 5.00 4.99 -38.1 0 1 424.29 470.54
  L 423.56 469.73
  A 3.09 3.09 0.0 0 1 424.14 465.11
  C 449.76 447.71 464.98 422.95 474.07 393.87
  C 483.80 362.74 487.21 328.55 477.73 297.00
  C 467.12 261.66 438.55 235.25 402.00 228.75
  C 377.63 224.42 350.85 229.36 329.33 243.59
  C 271.24 281.99 278.24 365.97 304.85 419.92
  Q 318.23 447.06 343.40 464.54
  Q 346.92 466.99 344.45 470.50
  L 343.98 471.17
  A 3.49 3.48 -58.1 0 1 339.47 472.22
  Q 332.30 468.34 328.10 463.96
  Z
  M 450.12 177.92
  L 450.33 176.73
  A 0.31 0.31 0.0 0 0 449.78 176.48
  C 448.09 178.62 450.90 180.34 452.04 181.57
  Q 453.82 183.49 452.63 181.16
  Q 452.52 180.96 451.32 180.35
  A 2.26 2.25 -71.4 0 1 450.12 177.92
  Z
  M 456.0348 179.2035
  A 1.39 0.32 40.0 0 0 455.1757 178.0649
  A 1.39 0.32 40.0 0 0 453.9052 177.4165
  A 1.39 0.32 40.0 0 0 454.7643 178.5551
  A 1.39 0.32 40.0 0 0 456.0348 179.2035
  Z
  M 444.24 182.17
  C 441.77 184.39 444.01 187.68 447.26 187.64
  Q 448.17 187.63 448.48 187.12
  Q 448.82 186.56 448.21 186.80
  Q 445.60 187.83 443.95 185.70
  A 2.20 2.20 0.0 0 1 445.04 182.25
  C 447.34 181.54 448.44 183.76 450.13 184.82
  Q 450.27 184.91 450.37 184.78
  L 450.38 184.77
  Q 450.47 184.64 450.31 184.49
  L 447.71 182.17
  A 2.61 2.60 44.9 0 0 444.24 182.17
  Z
  M 437.89 191.49
  Q 436.62 189.74 438.26 188.56
  Q 439.71 187.52 440.02 189.28
  L 440.15 189.98
  Q 440.30 190.81 440.38 189.97
  Q 440.48 188.89 440.28 187.83
  Q 440.19 187.38 439.74 187.45
  C 436.01 188.06 436.73 192.77 439.54 193.50
  C 441.81 194.09 442.41 192.87 444.03 191.67
  Q 444.47 191.34 444.47 190.80
  Q 444.48 190.08 443.99 190.60
  C 442.05 192.64 440.25 194.75 437.89 191.49
  Z
  M 433.43 192.56
  C 432.12 194.86 435.15 197.52 436.73 198.72
  Q 436.88 198.83 437.00 198.69
  L 437.00 198.69
  Q 437.13 198.55 437.00 198.41
  C 435.69 197.08 432.93 195.07 434.02 193.01
  Q 434.13 192.79 433.92 192.65
  L 433.70 192.50
  Q 433.53 192.39 433.43 192.56
  Z
  M 432.17 202.28
  A 2.26 2.26 0.0 0 1 429.07 202.96
  Q 426.54 201.36 428.19 198.82
  Q 428.38 198.53 428.05 198.43
  L 427.72 198.33
  Q 427.57 198.29 427.51 198.42
  Q 425.69 202.11 429.03 203.67
  Q 430.83 204.51 432.33 203.19
  C 435.39 200.49 429.35 195.73 427.60 194.06
  Q 427.45 193.92 427.29 194.05
  L 427.08 194.23
  Q 427.00 194.29 427.07 194.36
  C 428.69 196.15 433.77 199.81 432.17 202.28
  Z
  M 483.96 219.97
  L 476.65 227.21
  Q 476.62 227.24 476.75 227.36
  L 476.75 227.36
  Q 476.85 227.46 476.96 227.36
  Q 480.50 223.74 484.26 220.35
  Q 484.36 220.26 484.27 220.17
  L 484.08 219.97
  Q 484.02 219.91 483.96 219.97
  Z
  M 254.61 281.50
  A 5.03 5.03 0.0 0 0 249.58 276.47
  A 5.03 5.03 0.0 0 0 244.55 281.50
  A 5.03 5.03 0.0 0 0 249.58 286.53
  A 5.03 5.03 0.0 0 0 254.61 281.50
  Z
  M 523.74 281.46
  A 5.03 5.03 0.0 0 0 518.71 276.43
  A 5.03 5.03 0.0 0 0 513.68 281.46
  A 5.03 5.03 0.0 0 0 518.71 286.49
  A 5.03 5.03 0.0 0 0 523.74 281.46
  Z
  M 497.0194 279.9040
  A 2.16 0.25 135.5 0 0 498.7352 278.5683
  A 2.16 0.25 135.5 0 0 500.1006 276.8760
  A 2.16 0.25 135.5 0 0 498.3848 278.2117
  A 2.16 0.25 135.5 0 0 497.0194 279.9040
  Z
  M 585.90 336.11
  L 586.23 337.48
  A 0.30 0.28 -88.5 0 0 586.41 337.68
  Q 586.59 337.73 586.77 337.78
  A 0.34 0.33 9.6 0 0 587.20 337.48
  Q 587.32 335.50 586.49 333.80
  Q 586.22 333.25 585.66 333.48
  C 581.27 335.31 582.93 340.75 587.37 340.71
  A 0.55 0.54 77.0 0 0 587.85 339.93
  L 587.68 339.56
  Q 587.41 338.99 586.80 338.89
  Q 584.51 338.52 585.19 336.10
  A 0.37 0.37 0.0 0 1 585.90 336.11
  Z
  M 580.66 340.39
  Q 581.16 339.49 580.89 338.58
  A 0.45 0.45 0.0 0 0 580.07 338.48
  L 579.05 340.23
  Q 578.79 340.67 579.03 341.11
  Q 580.49 343.86 582.92 345.79
  A 0.47 0.47 0.0 0 0 583.61 345.67
  L 583.78 345.39
  A 0.84 0.84 0.0 0 0 583.67 344.37
  L 580.78 341.38
  A 0.83 0.83 0.0 0 1 580.66 340.39
  Z
  M 284.27 343.20
  C 284.08 341.96 283.13 340.48 281.89 340.35
  A 0.48 0.47 -11.2 0 0 281.42 341.05
  Q 282.25 342.59 283.74 343.54
  Q 284.39 343.97 284.27 343.20
  Z
  M 579.99 346.75
  Q 579.80 345.65 579.00 344.86
  L 574.45 340.37
  Q 573.94 339.87 573.48 340.40
  L 573.27 340.64
  Q 573.03 340.93 573.29 341.21
  C 574.63 342.64 578.14 345.41 578.64 346.92
  Q 579.13 348.38 577.35 349.35
  A 1.22 1.20 45.5 0 1 576.17 349.33
  Q 573.94 348.03 575.05 345.61
  Q 575.32 345.03 574.81 344.65
  L 574.50 344.43
  A 0.59 0.59 0.0 0 0 573.62 344.65
  C 570.33 351.25 581.16 353.36 579.99 346.75
  Z
  M 283.89 349.25
  Q 282.19 347.59 283.17 345.63
  Q 283.50 344.96 282.84 344.60
  L 282.48 344.41
  A 0.58 0.58 0.0 0 0 281.69 344.67
  Q 279.54 349.02 283.73 350.43
  Q 284.47 350.68 284.80 350.15
  Q 284.95 349.91 284.70 349.78
  L 284.37 349.60
  A 2.33 2.08 77.9 0 1 283.89 349.25
  Z"
/>
<path fill="#676767" d="
  M 327.44 172.16
  Q 329.26 173.35 329.30 175.47
  C 329.36 179.61 327.39 184.72 324.29 187.24
  Q 321.95 189.14 322.67 186.21
  C 323.29 183.65 324.90 181.33 325.10 178.56
  Q 325.24 176.62 325.07 174.62
  Q 325.02 174.13 325.41 173.83
  Q 326.02 173.34 326.30 172.70
  Q 326.78 172.35 327.44 172.16
  Z"
/>
<path fill="#676767" d="
  M 321.46 174.28
  Q 321.34 174.45 321.42 174.63
  Q 321.57 174.97 321.95 174.95
  Q 322.93 174.90 323.01 175.75
  C 323.54 182.17 320.30 187.41 314.32 189.97
  Q 303.38 194.65 295.42 184.38
  L 300.13 182.34
  C 305.95 188.73 319.22 188.30 317.88 177.14
  Q 317.82 176.66 318.18 176.34
  Q 318.91 175.69 319.32 174.96
  Q 320.20 174.42 321.46 174.28
  Z"
/>
<path fill="#171819" d="
  M 319.32 174.96
  Q 318.91 175.69 318.18 176.34
  Q 317.82 176.66 317.88 177.14
  C 319.22 188.30 305.95 188.73 300.13 182.34
  Q 302.12 180.85 304.69 180.36
  C 306.55 184.63 311.61 183.93 314.50 181.38
  A 1.93 1.92 61.7 0 0 315.08 179.44
  L 314.87 178.65
  Q 314.60 177.64 313.68 178.14
  C 311.68 179.24 308.87 182.07 306.73 179.41
  L 319.32 174.96
  Z"
/>
<path fill="#ffffff" d="
  M 450.12 177.92
  A 2.26 2.25 -71.4 0 0 451.32 180.35
  Q 452.52 180.96 452.63 181.16
  Q 453.82 183.49 452.04 181.57
  C 450.90 180.34 448.09 178.62 449.78 176.48
  A 0.31 0.31 0.0 0 1 450.33 176.73
  L 450.12 177.92
  Z"
/>
<ellipse fill="#ffffff" cx="0.00" cy="0.00" transform="translate(454.97,178.31) rotate(40.0)" rx="1.39" ry="0.32"/>
<path fill="#676767" d="
  M 304.69 180.36
  L 306.73 179.41
  C 308.87 182.07 311.68 179.24 313.68 178.14
  Q 314.60 177.64 314.87 178.65
  L 315.08 179.44
  A 1.93 1.92 61.7 0 1 314.50 181.38
  C 311.61 183.93 306.55 184.63 304.69 180.36
  Z"
/>
<path fill="#ffffff" d="
  M 447.26 187.64
  C 444.01 187.68 441.77 184.39 444.24 182.17
  A 2.61 2.60 44.9 0 1 447.71 182.17
  L 450.31 184.49
  Q 450.47 184.64 450.38 184.77
  L 450.37 184.78
  Q 450.27 184.91 450.13 184.82
  C 448.44 183.76 447.34 181.54 445.04 182.25
  A 2.20 2.20 0.0 0 0 443.95 185.70
  Q 445.60 187.83 448.21 186.80
  Q 448.82 186.56 448.48 187.12
  Q 448.17 187.63 447.26 187.64
  Z"
/>
<path fill="#ffffff" d="
  M 437.89 191.49
  C 440.25 194.75 442.05 192.64 443.99 190.60
  Q 444.48 190.08 444.47 190.80
  Q 444.47 191.34 444.03 191.67
  C 442.41 192.87 441.81 194.09 439.54 193.50
  C 436.73 192.77 436.01 188.06 439.74 187.45
  Q 440.19 187.38 440.28 187.83
  Q 440.48 188.89 440.38 189.97
  Q 440.30 190.81 440.15 189.98
  L 440.02 189.28
  Q 439.71 187.52 438.26 188.56
  Q 436.62 189.74 437.89 191.49
  Z"
/>
<path fill="#ffffff" d="
  M 436.73 198.72
  C 435.15 197.52 432.12 194.86 433.43 192.56
  Q 433.53 192.39 433.70 192.50
  L 433.92 192.65
  Q 434.13 192.79 434.02 193.01
  C 432.93 195.07 435.69 197.08 437.00 198.41
  Q 437.13 198.55 437.00 198.69
  L 437.00 198.69
  Q 436.88 198.83 436.73 198.72
  Z"
/>
<path fill="#ffffff" d="
  M 432.17 202.28
  C 433.77 199.81 428.69 196.15 427.07 194.36
  Q 427.00 194.29 427.08 194.23
  L 427.29 194.05
  Q 427.45 193.92 427.60 194.06
  C 429.35 195.73 435.39 200.49 432.33 203.19
  Q 430.83 204.51 429.03 203.67
  Q 425.69 202.11 427.51 198.42
  Q 427.57 198.29 427.72 198.33
  L 428.05 198.43
  Q 428.38 198.53 428.19 198.82
  Q 426.54 201.36 429.07 202.96
  A 2.26 2.26 0.0 0 0 432.17 202.28
  Z"
/>
<path fill="#676767" d="
  M 483.96 219.97
  Q 484.02 219.91 484.08 219.97
  L 484.27 220.17
  Q 484.36 220.26 484.26 220.35
  Q 480.50 223.74 476.96 227.36
  Q 476.85 227.46 476.75 227.36
  L 476.75 227.36
  Q 476.62 227.24 476.65 227.21
  L 483.96 219.97
  Z"
/>
<circle fill="#171819" cx="384.61" cy="285.90" r="10.30"/>
<circle fill="#ffffff" cx="249.58" cy="281.50" r="5.03"/>
<circle fill="#ffffff" cx="518.71" cy="281.46" r="5.03"/>
<ellipse fill="#676767" cx="0.00" cy="0.00" transform="translate(498.56,278.39) rotate(135.5)" rx="2.16" ry="0.25"/>
<path fill="#171819" d="
  M 314.56 314.14
  C 313.55 314.12 312.67 314.62 311.88 314.68
  Q 304.95 315.23 298.24 317.02
  A 0.34 0.34 0.0 0 1 297.82 316.61
  Q 297.89 316.30 298.28 316.03
  C 314.92 304.36 339.44 301.81 354.73 317.78
  Q 365.79 329.33 367.79 343.67
  Q 368.21 346.62 366.73 344.04
  C 360.18 332.60 349.52 321.41 336.68 316.90
  C 332.80 315.54 328.11 314.86 323.78 314.09
  C 320.67 313.53 317.76 314.19 314.56 314.14
  Z
  M 318.93 309.45
  Q 319.44 309.12 319.14 308.80
  A 0.34 0.33 43.4 0 0 318.64 308.81
  Q 317.76 309.90 316.34 309.94
  Q 315.60 309.96 316.10 310.51
  Q 317.13 311.63 318.51 312.29
  Q 319.10 312.57 318.86 311.97
  Q 318.48 311.03 318.58 310.03
  Q 318.62 309.66 318.93 309.45
  Z
  M 323.58 312.24
  Q 323.94 310.95 323.28 310.21
  Q 322.98 309.87 322.56 309.87
  Q 321.91 309.85 322.11 310.47
  Q 322.43 311.53 323.20 312.34
  A 0.23 0.22 -59.2 0 0 323.58 312.24
  Z"
/>
<path fill="#171819" d="
  M 448.00 306.89
  Q 448.16 307.37 448.13 307.65
  Q 448.11 307.93 447.64 308.00
  Q 441.65 308.90 441.09 314.50
  C 423.19 317.64 410.29 330.42 401.07 345.53
  Q 400.87 345.86 400.52 345.72
  Q 400.39 345.68 400.27 345.63
  Q 400.25 345.63 400.25 345.61
  C 403.32 332.46 407.91 321.62 418.99 313.70
  Q 431.76 304.58 448.00 306.89
  Z"
/>
<path fill="#676767" d="
  M 448.00 306.89
  L 454.13 308.55
  L 445.96 313.78
  L 441.09 314.50
  Q 441.65 308.90 447.64 308.00
  Q 448.11 307.93 448.13 307.65
  Q 448.16 307.37 448.00 306.89
  Z"
/>
<path fill="#171819" d="
  M 454.13 308.55
  Q 462.85 309.76 470.36 316.35
  Q 470.94 316.85 470.19 316.70
  L 463.09 315.26
  Q 459.11 312.20 455.59 314.03
  L 445.96 313.78
  L 454.13 308.55
  Z"
/>
<path fill="#676767" d="
  M 318.58 310.03
  Q 318.48 311.03 318.86 311.97
  Q 319.10 312.57 318.51 312.29
  Q 317.13 311.63 316.10 310.51
  Q 315.60 309.96 316.34 309.94
  Q 317.76 309.90 318.64 308.81
  A 0.34 0.33 43.4 0 1 319.14 308.80
  Q 319.44 309.12 318.93 309.45
  Q 318.62 309.66 318.58 310.03
  Z"
/>
<path fill="#676767" d="
  M 323.58 312.24
  A 0.23 0.22 -59.2 0 1 323.20 312.34
  Q 322.43 311.53 322.11 310.47
  Q 321.91 309.85 322.56 309.87
  Q 322.98 309.87 323.28 310.21
  Q 323.94 310.95 323.58 312.24
  Z"
/>
<path fill="#676767" d="
  M 463.09 315.26
  L 455.59 314.03
  Q 459.11 312.20 463.09 315.26
  Z"
/>
<path fill="#676767" d="
  M 585.90 336.11
  A 0.37 0.37 0.0 0 0 585.19 336.10
  Q 584.51 338.52 586.80 338.89
  Q 587.41 338.99 587.68 339.56
  L 587.85 339.93
  A 0.55 0.54 77.0 0 1 587.37 340.71
  C 582.93 340.75 581.27 335.31 585.66 333.48
  Q 586.22 333.25 586.49 333.80
  Q 587.32 335.50 587.20 337.48
  A 0.34 0.33 9.6 0 1 586.77 337.78
  Q 586.59 337.73 586.41 337.68
  A 0.30 0.28 -88.5 0 1 586.23 337.48
  L 585.90 336.11
  Z"
/>
<path fill="#171819" d="
  M 384.14 338.39
  A 0.45 0.45 0.0 0 1 384.27 338.10
  Q 384.56 337.80 384.74 337.93
  Q 384.84 338.01 384.86 338.20
  Q 388.79 378.27 384.79 418.01
  Q 384.68 419.10 384.20 418.12
  Q 384.08 417.86 384.02 417.25
  C 381.52 390.83 381.48 364.80 384.14 338.39
  Z"
/>
<path fill="#676767" d="
  M 580.66 340.39
  A 0.83 0.83 0.0 0 0 580.78 341.38
  L 583.67 344.37
  A 0.84 0.84 0.0 0 1 583.78 345.39
  L 583.61 345.67
  A 0.47 0.47 0.0 0 1 582.92 345.79
  Q 580.49 343.86 579.03 341.11
  Q 578.79 340.67 579.05 340.23
  L 580.07 338.48
  A 0.45 0.45 0.0 0 1 580.89 338.58
  Q 581.16 339.49 580.66 340.39
  Z"
/>
<path fill="#676767" d="
  M 281.89 340.35
  C 283.13 340.48 284.08 341.96 284.27 343.20
  Q 284.39 343.97 283.74 343.54
  Q 282.25 342.59 281.42 341.05
  A 0.48 0.47 -11.2 0 1 281.89 340.35
  Z"
/>
<path fill="#676767" d="
  M 579.99 346.75
  C 581.16 353.36 570.33 351.25 573.62 344.65
  A 0.59 0.59 0.0 0 1 574.50 344.43
  L 574.81 344.65
  Q 575.32 345.03 575.05 345.61
  Q 573.94 348.03 576.17 349.33
  A 1.22 1.20 45.5 0 0 577.35 349.35
  Q 579.13 348.38 578.64 346.92
  C 578.14 345.41 574.63 342.64 573.29 341.21
  Q 573.03 340.93 573.27 340.64
  L 573.48 340.40
  Q 573.94 339.87 574.45 340.37
  L 579.00 344.86
  Q 579.80 345.65 579.99 346.75
  Z"
/>
<path fill="#676767" d="
  M 284.37 349.60
  L 284.70 349.78
  Q 284.95 349.91 284.80 350.15
  Q 284.47 350.68 283.73 350.43
  Q 279.54 349.02 281.69 344.67
  A 0.58 0.58 0.0 0 1 282.48 344.41
  L 282.84 344.60
  Q 283.50 344.96 283.17 345.63
  Q 282.19 347.59 283.89 349.25
  A 2.33 2.08 77.9 0 0 284.37 349.60
  Z"
/>
<path fill="#171819" d="
  M 351.21 352.13
  C 335.03 359.34 316.69 358.20 301.52 348.50
  Q 301.34 348.38 301.28 348.22
  Q 301.21 348.01 301.26 347.84
  Q 301.40 347.43 301.82 347.54
  C 318.99 351.77 338.38 351.24 355.72 348.23
  Q 357.44 347.93 359.19 347.35
  Q 359.51 347.25 359.63 347.56
  L 359.74 347.81
  Q 359.86 348.13 359.56 348.27
  Q 355.37 350.28 351.21 352.13
  Z"
/>
<path fill="#171819" d="
  M 449.25 355.50
  C 434.51 358.83 422.42 355.35 409.39 348.69
  A 0.71 0.71 0.0 0 1 409.02 347.87
  L 409.10 347.57
  A 0.26 0.25 17.9 0 1 409.45 347.40
  Q 412.58 348.67 416.05 349.14
  Q 441.73 352.65 465.41 347.80
  Q 469.05 347.05 465.86 348.95
  Q 458.23 353.48 449.25 355.50
  Z"
/>
<path fill="#171819" d="
  M 300.13 453.65
  Q 296.08 455.80 294.62 460.62
  C 289.42 454.15 285.76 447.40 281.54 440.67
  Q 276.24 432.20 273.03 429.13
  C 260.69 417.29 242.74 420.18 229.43 429.70
  C 215.67 439.54 206.70 450.75 198.57 464.56
  Q 198.02 465.49 197.88 466.03
  A 0.51 0.50 38.7 0 1 196.94 466.13
  L 192.73 457.90
  A 1.80 1.80 0.0 0 1 192.84 456.08
  C 201.48 443.27 209.93 432.64 222.66 423.17
  C 238.75 411.20 260.30 406.77 276.68 420.57
  C 283.85 426.61 288.29 434.61 294.25 444.88
  C 296.01 447.93 298.10 450.74 300.13 453.65
  Z"
/>
<path fill="#171819" d="
  M 313.95 481.90
  Q 317.12 480.75 319.70 478.39
  Q 320.87 477.32 319.73 476.23
  L 318.94 475.47
  Q 317.82 474.40 316.56 475.31
  L 311.16 479.21
  Q 308.32 477.31 305.90 473.80
  Q 311.29 477.21 314.22 473.12
  A 1.31 1.31 0.0 0 0 313.79 471.21
  Q 312.56 470.53 311.85 469.36
  A 0.44 0.44 0.0 0 0 311.03 469.55
  Q 310.96 470.29 311.24 470.98
  A 0.71 0.70 -35.2 0 1 311.10 471.74
  C 309.00 474.02 306.87 471.62 306.42 469.54
  C 305.74 466.46 308.78 464.76 305.10 461.82
  A 0.94 0.93 -49.6 0 0 303.83 461.93
  Q 301.11 464.95 302.74 470.48
  Q 299.51 467.67 297.94 464.85
  L 301.83 458.66
  Q 301.94 458.48 301.95 458.28
  Q 301.96 458.13 301.99 457.99
  Q 302.03 457.68 302.23 457.61
  Q 302.45 457.53 302.86 457.49
  Q 304.22 458.92 305.40 460.58
  C 309.59 466.47 315.40 471.35 320.77 476.10
  C 354.33 505.76 402.59 508.47 439.17 482.89
  Q 453.64 472.77 462.11 462.11
  Q 472.69 448.80 474.93 444.48
  Q 478.15 438.27 484.16 430.17
  C 495.69 414.63 514.20 410.73 531.99 417.06
  C 549.27 423.21 565.14 439.86 575.55 455.35
  A 1.61 1.60 40.1 0 1 575.69 456.90
  L 571.72 465.78
  A 0.37 0.37 0.0 0 1 571.05 465.80
  C 561.70 448.42 543.18 428.73 523.29 424.34
  Q 505.51 420.41 493.37 433.10
  Q 490.28 436.33 487.35 441.26
  Q 480.82 452.22 473.11 462.38
  C 442.55 502.66 391.78 522.83 343.50 501.03
  Q 327.21 493.68 313.95 481.90
  Z
  M 483.09 438.53
  L 483.09 439.52
  Q 483.09 439.96 483.53 439.93
  L 483.91 439.90
  A 0.36 0.36 0.0 0 0 484.24 439.49
  L 483.94 436.76
  A 1.14 1.13 -17.5 0 0 482.26 435.89
  C 476.01 439.39 483.93 446.54 486.23 441.03
  Q 486.59 440.16 485.70 440.46
  Q 484.77 440.78 484.04 441.47
  A 0.70 0.69 -54.3 0 1 483.28 441.60
  Q 481.38 440.75 481.23 438.68
  A 0.76 0.75 4.4 0 1 482.15 437.90
  Q 482.38 437.96 482.61 437.98
  Q 483.09 438.04 483.09 438.53
  Z
  M 481.6589 446.5567
  A 0.61 0.61 0.0 0 0 481.6348 445.6944
  L 478.1908 442.4376
  A 0.61 0.61 0.0 0 0 477.3285 442.4617
  L 477.0811 442.7233
  A 0.61 0.61 0.0 0 0 477.1052 443.5856
  L 480.5492 446.8424
  A 0.61 0.61 0.0 0 0 481.4115 446.8183
  L 481.6589 446.5567
  Z
  M 476.5543 445.7557
  A 0.82 0.82 0.0 0 0 475.3969 445.6829
  L 475.2169 445.8416
  A 0.82 0.82 0.0 0 0 475.1441 446.9989
  L 477.4057 449.5643
  A 0.82 0.82 0.0 0 0 478.5631 449.6371
  L 478.7431 449.4784
  A 0.82 0.82 0.0 0 0 478.8159 448.3211
  L 476.5543 445.7557
  Z
  M 475.68 451.37
  Q 475.14 450.38 474.65 449.77
  Q 474.20 449.19 473.64 449.20
  Q 473.19 449.21 472.83 449.53
  Q 472.43 449.89 472.67 450.37
  Q 473.56 452.13 474.89 452.42
  Q 476.44 452.77 475.68 451.37
  Z
  M 473.0500 455.0757
  A 1.66 0.91 42.7 0 0 472.4471 453.2812
  A 1.66 0.91 42.7 0 0 470.6100 452.8243
  A 1.66 0.91 42.7 0 0 471.2129 454.6188
  A 1.66 0.91 42.7 0 0 473.0500 455.0757
  Z
  M 469.53 456.86
  Q 469.45 456.19 469.06 455.85
  A 0.58 0.58 0.0 0 0 468.10 456.21
  Q 467.91 457.87 466.69 458.82
  Q 465.16 460.02 467.10 460.09
  Q 469.93 460.21 469.53 456.86
  Z
  M 460.7809 466.3848
  A 1.39 0.54 128.7 0 0 462.0714 465.6376
  A 1.39 0.54 128.7 0 0 462.5191 464.2152
  A 1.39 0.54 128.7 0 0 461.2286 464.9624
  A 1.39 0.54 128.7 0 0 460.7809 466.3848
  Z
  M 458.42 467.96
  Q 457.84 468.34 458.00 468.94
  A 0.58 0.57 43.9 0 0 459.12 468.92
  Q 459.21 468.52 459.07 468.16
  A 0.44 0.44 0.0 0 0 458.42 467.96
  Z
  M 449.79 476.37
  C 448.55 478.11 447.19 478.17 445.94 479.52
  Q 445.68 479.80 446.03 479.95
  C 448.17 480.88 449.13 478.29 450.70 477.42
  Q 451.49 476.98 450.96 476.33
  A 0.74 0.74 0.0 0 0 449.79 476.37
  Z
  M 440.35 484.66
  L 439.04 484.75
  Q 438.58 484.78 438.77 485.20
  C 440.00 487.97 443.94 484.22 444.63 482.89
  Q 445.10 482.00 444.17 482.39
  Q 443.22 482.80 441.23 484.33
  Q 440.84 484.63 440.35 484.66
  Z
  M 437.0952 490.7730
  A 2.41 0.76 45.3 0 0 435.9402 488.5254
  A 2.41 0.76 45.3 0 0 433.7048 487.3470
  A 2.41 0.76 45.3 0 0 434.8598 489.5946
  A 2.41 0.76 45.3 0 0 437.0952 490.7730
  Z
  M 429.71 494.61
  Q 427.88 494.23 427.94 491.71
  A 0.39 0.39 0.0 0 0 427.32 491.38
  L 426.96 491.65
  Q 426.46 492.02 426.52 492.63
  C 426.93 497.05 432.84 498.05 433.49 493.38
  Q 433.89 490.51 430.72 489.70
  A 0.27 0.26 -9.3 0 0 430.43 490.10
  Q 431.82 492.15 431.74 493.39
  Q 431.65 495.01 429.71 494.61
  Z"
/>
<path fill="#171819" d="
  M 371.71 427.45
  C 376.14 424.98 379.89 426.99 383.85 429.44
  Q 384.30 429.71 384.76 429.45
  C 390.34 426.16 392.82 424.76 399.16 428.62
  Q 404.69 432.00 410.09 435.91
  A 0.38 0.37 47.2 0 1 410.07 436.53
  C 398.25 443.94 386.17 449.73 372.22 443.97
  C 368.13 442.28 362.70 439.49 358.31 436.79
  Q 357.77 436.46 358.28 436.08
  Q 364.74 431.34 371.71 427.45
  Z"
/>
<path fill="#676767" d="
  M 482.61 437.98
  Q 482.38 437.96 482.15 437.90
  A 0.76 0.75 4.4 0 0 481.23 438.68
  Q 481.38 440.75 483.28 441.60
  A 0.70 0.69 -54.3 0 0 484.04 441.47
  Q 484.77 440.78 485.70 440.46
  Q 486.59 440.16 486.23 441.03
  C 483.93 446.54 476.01 439.39 482.26 435.89
  A 1.14 1.13 -17.5 0 1 483.94 436.76
  L 484.24 439.49
  A 0.36 0.36 0.0 0 1 483.91 439.90
  L 483.53 439.93
  Q 483.09 439.96 483.09 439.52
  L 483.09 438.53
  Q 483.09 438.04 482.61 437.98
  Z"
/>
<rect fill="#676767" x="-2.98" y="-0.79" transform="translate(479.37,444.64) rotate(43.4)" width="5.96" height="1.58" rx="0.61"/>
<path fill="#171819" d="
  M 348.77 519.70
  C 402.52 537.86 454.72 513.40 485.62 468.37
  C 493.24 457.26 498.35 448.41 512.50 446.66
  Q 515.61 446.27 518.96 446.85
  A 1.22 1.22 0.0 0 1 519.66 448.86
  C 516.89 451.99 512.96 453.54 509.20 455.25
  C 498.69 459.99 493.57 471.64 487.66 479.42
  C 457.89 518.57 411.36 541.95 361.73 532.14
  C 323.76 524.63 293.73 498.69 273.71 466.95
  Q 269.29 459.93 267.00 457.66
  C 261.71 452.41 254.60 451.19 249.49 445.61
  A 0.97 0.97 0.0 0 1 249.97 444.01
  C 266.86 439.69 276.45 457.01 284.03 468.22
  C 299.64 491.27 322.14 510.70 348.77 519.70
  Z"
/>
<rect fill="#676767" x="-0.94" y="-2.53" transform="translate(476.98,447.66) rotate(-41.4)" width="1.88" height="5.06" rx="0.82"/>
<path fill="#676767" d="
  M 475.68 451.37
  Q 476.44 452.77 474.89 452.42
  Q 473.56 452.13 472.67 450.37
  Q 472.43 449.89 472.83 449.53
  Q 473.19 449.21 473.64 449.20
  Q 474.20 449.19 474.65 449.77
  Q 475.14 450.38 475.68 451.37
  Z"
/>
<path fill="#676767" d="
  M 314.83 450.73
  Q 326.19 452.37 328.10 463.96
  Q 320.52 458.36 314.83 450.73
  Z"
/>
<ellipse fill="#676767" cx="0.00" cy="0.00" transform="translate(471.83,453.95) rotate(42.7)" rx="1.66" ry="0.91"/>
<path fill="#676767" d="
  M 300.13 453.65
  L 302.86 457.49
  Q 302.45 457.53 302.23 457.61
  Q 302.03 457.68 301.99 457.99
  Q 301.96 458.13 301.95 458.28
  Q 301.94 458.48 301.83 458.66
  L 297.94 464.85
  L 294.62 460.62
  Q 296.08 455.80 300.13 453.65
  Z"
/>
<path fill="#676767" d="
  M 469.53 456.86
  Q 469.93 460.21 467.10 460.09
  Q 465.16 460.02 466.69 458.82
  Q 467.91 457.87 468.10 456.21
  A 0.58 0.58 0.0 0 1 469.06 455.85
  Q 469.45 456.19 469.53 456.86
  Z"
/>
<path fill="#676767" d="
  M 305.90 473.80
  Q 303.75 472.44 302.74 470.48
  Q 301.11 464.95 303.83 461.93
  A 0.94 0.93 -49.6 0 1 305.10 461.82
  C 308.78 464.76 305.74 466.46 306.42 469.54
  C 306.87 471.62 309.00 474.02 311.10 471.74
  A 0.71 0.70 -35.2 0 0 311.24 470.98
  Q 310.96 470.29 311.03 469.55
  A 0.44 0.44 0.0 0 1 311.85 469.36
  Q 312.56 470.53 313.79 471.21
  A 1.31 1.31 0.0 0 1 314.22 473.12
  Q 311.29 477.21 305.90 473.80
  Z"
/>
<ellipse fill="#ffffff" cx="0.00" cy="0.00" transform="translate(461.65,465.30) rotate(128.7)" rx="1.39" ry="0.54"/>
<path fill="#676767" d="
  M 458.42 467.96
  A 0.44 0.44 0.0 0 1 459.07 468.16
  Q 459.21 468.52 459.12 468.92
  A 0.58 0.57 43.9 0 1 458.00 468.94
  Q 457.84 468.34 458.42 467.96
  Z"
/>
<path fill="#676767" d="
  M 313.95 481.90
  L 311.16 479.21
  L 316.56 475.31
  Q 317.82 474.40 318.94 475.47
  L 319.73 476.23
  Q 320.87 477.32 319.70 478.39
  Q 317.12 480.75 313.95 481.90
  Z"
/>
<path fill="#676767" d="
  M 445.94 479.52
  C 447.19 478.17 448.55 478.11 449.79 476.37
  A 0.74 0.74 0.0 0 1 450.96 476.33
  Q 451.49 476.98 450.70 477.42
  C 449.13 478.29 448.17 480.88 446.03 479.95
  Q 445.68 479.80 445.94 479.52
  Z"
/>
<path fill="#171819" d="
  M 507.68 485.73
  C 476.84 531.06 427.75 561.03 371.66 555.76
  C 324.73 551.34 288.61 523.03 261.79 485.23
  Q 259.55 482.08 262.30 479.36
  L 263.01 478.66
  A 2.58 2.57 50.3 0 1 266.95 479.03
  C 283.50 503.09 305.31 523.84 331.48 535.94
  Q 369.35 553.44 408.75 545.50
  C 447.93 537.59 479.03 513.08 501.95 480.47
  A 2.91 2.90 36.0 0 1 506.07 479.82
  L 506.80 480.37
  Q 509.79 482.63 507.68 485.73
  Z"
/>
<path fill="#676767" d="
  M 441.23 484.33
  Q 443.22 482.80 444.17 482.39
  Q 445.10 482.00 444.63 482.89
  C 443.94 484.22 440.00 487.97 438.77 485.20
  Q 438.58 484.78 439.04 484.75
  L 440.35 484.66
  Q 440.84 484.63 441.23 484.33
  Z"
/>
<ellipse fill="#676767" cx="0.00" cy="0.00" transform="translate(435.40,489.06) rotate(45.3)" rx="2.41" ry="0.76"/>
<path fill="#676767" d="
  M 431.74 493.39
  Q 431.82 492.15 430.43 490.10
  A 0.27 0.26 -9.3 0 1 430.72 489.70
  Q 433.89 490.51 433.49 493.38
  C 432.84 498.05 426.93 497.05 426.52 492.63
  Q 426.46 492.02 426.96 491.65
  L 427.32 491.38
  A 0.39 0.39 0.0 0 1 427.94 491.71
  Q 427.88 494.23 429.71 494.61
  Q 431.65 495.01 431.74 493.39
  Z"
/>
<path fill="#171819" d="
  M 407.12 576.12
  C 354.06 584.21 302.29 563.64 267.22 523.22
  Q 265.05 520.71 267.14 518.13
  L 267.64 517.52
  A 2.53 2.52 -49.4 0 1 271.29 517.24
  Q 275.03 520.64 277.86 523.49
  C 295.37 541.11 317.66 555.62 341.46 562.99
  C 399.04 580.79 456.73 561.79 497.73 517.93
  A 2.87 2.86 -46.4 0 1 501.83 517.83
  L 502.47 518.46
  Q 505.10 521.02 502.64 523.75
  C 476.73 552.45 444.52 570.43 407.12 576.12
  Z"
/>
</svg>
