<svg xmlns="http://www.w3.org/2000/svg" viewBox="0 0 196.09 81.94"><defs><style>.cls-1{opacity:0.6;}.cls-2{fill:#fff;fill-rule:evenodd;}</style></defs><g id="Capa_2" data-name="Capa 2"><g id="Footer"><g class="cls-1"><path class="cls-2" d="M64.43,58.52H56.09L69.62,20.59h9.16L92.15,58.52H83.48l-2.43-7.86H67.11l-2.68,7.86Zm4.79-14.43h9.64l-4.7-15h-.08l-4.86,15Z"/><path class="cls-2" d="M99.37,58.52H91l13.53-37.93h9.16l13.38,37.93h-8.6l-2.43-7.86H102l-2.67,7.86Zm4.78-14.43h9.64l-4.7-15H109l-4.86,15Z"/><path class="cls-2" d="M4.13,81.54H0L6.73,62.73h4.54l6.56,18.81H13.62L12.4,77.65h-7l-1.3,3.89ZM6.48,74.4h4.79L8.92,67h0L6.48,74.4Z"/><path class="cls-2" d="M38.42,81.54H34.77V73.11c0-2.11-.89-2.76-2-2.76-1.78,0-2.43,1.22-2.43,2.84v8.35H26.58V73.19c0-1.22,0-2.84-2.18-2.84-1.71,0-2.27,1.22-2.27,2.76v8.43H18.48V67.6H22v2.1h.09a4,4,0,0,1,4-2.43,3.87,3.87,0,0,1,3.81,2.19,4.48,4.48,0,0,1,3.72-2.19c2.76,0,4.87,1.62,4.87,4.62v9.65Z"/><path class="cls-2" d="M52.2,77.48A6.13,6.13,0,0,1,46,81.94c-3.89,0-7-1.94-7-7.62,0-1.7.64-7,6.72-7,2.76,0,6.49,1.3,6.49,7.7v.65H42.79c.08,1,.33,3.4,3.25,3.4a2.33,2.33,0,0,0,2.35-1.54Zm-3.65-4.29c-.24-2.27-1.62-2.92-2.84-2.92-1.7,0-2.59,1.13-2.84,2.92Z"/><path class="cls-2" d="M53.17,67.6h3.48V70h.08c.73-1.38,1.54-2.76,3.81-2.76a2.25,2.25,0,0,1,.73.08V71H60.22c-2.84,0-3.4,1.78-3.4,3.32v7.22H53.17V67.6Z"/><path class="cls-2" d="M65.57,67.6V81.54H61.92V67.6Zm0-1.63H61.92v-3.4h3.65V66Z"/><path class="cls-2" d="M79.51,76.51a6.06,6.06,0,0,1-6.4,5.43c-5.19,0-6.41-4-6.41-7,0-4.46,2-7.7,6.65-7.7,2.19,0,5.84,1,6.16,5.35H75.78a2.36,2.36,0,0,0-2.43-2.27c-2.27,0-2.92,2.27-2.92,4.05,0,1.46.08,4.54,2.84,4.54a2.58,2.58,0,0,0,2.51-2.43Z"/><path class="cls-2" d="M91.75,78.86c0,1.62.4,2,.81,2.11v.57h-4a7.68,7.68,0,0,1-.33-1.63,5.5,5.5,0,0,1-4.46,2c-2.1,0-4.29-1.22-4.29-4s1.78-4.13,4-4.46l3.33-.49c.56-.08,1.29-.32,1.29-1.13,0-1.54-1.46-1.62-2.43-1.62a2,2,0,0,0-2.27,1.94H80c.4-4.29,3.32-4.86,6.24-4.86,1.94,0,5.51.57,5.51,4v7.54Zm-3.57-4a6.72,6.72,0,0,1-2.51.73c-1.38.24-2.51.57-2.51,2.11a1.57,1.57,0,0,0,1.7,1.62c1.62,0,3.32-1,3.32-2.68V74.81Z"/><path class="cls-2" d="M106,81.54h-3.64V73.11c0-1.06-.09-2.76-2.35-2.76-1.63,0-2.92,1.14-2.92,3.24v8H93.45V67.6h3.49v2.1H97a4.39,4.39,0,0,1,4.21-2.43c2.68,0,4.78,1.62,4.78,4.62v9.65Z"/><path class="cls-2" d="M110.79,81.54h-4.13l6.73-18.81h4.54l6.56,18.81h-4.21l-1.22-3.89h-6.89l-1.38,3.89Zm2.35-7.14h4.79L115.66,67h-.08l-2.44,7.37Z"/><path class="cls-2" d="M129,67.6V81.54H125.3V67.6ZM129,66H125.3v-3.4H129V66Z"/><path class="cls-2" d="M130.9,67.6h3.48V70h.08c.73-1.38,1.54-2.76,3.81-2.76a1.82,1.82,0,0,1,.65.08V71h-1c-2.84,0-3.33,1.78-3.33,3.32v7.22H130.9V67.6Z"/><polygon class="cls-2" points="143.3 81.54 139.57 81.54 139.57 62.73 143.3 62.73 143.3 81.54 143.3 81.54"/><path class="cls-2" d="M149,67.6V81.54h-3.65V67.6ZM149,66h-3.65v-3.4H149V66Z"/><path class="cls-2" d="M163.48,81.54h-3.65V73.11c0-1.06-.08-2.76-2.35-2.76a2.91,2.91,0,0,0-2.92,3.24v8h-3.65V67.6h3.49v2.1h.08a4.36,4.36,0,0,1,4.13-2.43c2.76,0,4.87,1.62,4.87,4.62v9.65Z"/><path class="cls-2" d="M177.25,77.48a6,6,0,0,1-6.07,4.46c-4,0-7-1.94-7-7.62,0-1.7.56-7,6.72-7,2.68,0,6.49,1.3,6.49,7.7v.65h-9.57c.17,1,.33,3.4,3.33,3.4a2.47,2.47,0,0,0,2.35-1.54Zm-3.56-4.29c-.24-2.27-1.7-2.92-2.84-2.92-1.7,0-2.67,1.13-2.83,2.92Z"/><path class="cls-2" d="M186.17,71.89C186,71,185.68,70,183.74,70s-2.27.81-2.27,1.37c0,2.19,8.67.57,8.67,5.76,0,4-3.89,4.78-6.08,4.78-3.16,0-6.56-1.13-6.64-4.86h3.73c0,1.21.73,2,3.08,2,1.86,0,2.26-.89,2.26-1.37,0-2.35-8.59-.57-8.59-5.84,0-2,1.3-4.62,5.6-4.62,2.75,0,6,.65,6.24,4.62Z"/><path class="cls-2" d="M192.69,66.7H192V63.54h1.13c.81,0,1.3.25,1.3,1,0,.56-.33.72-.73.81l.81,1.37h-.81L193,65.33h-.32V66.7Zm.56-1.86c.33,0,.49-.08.49-.41s-.33-.32-.57-.32h-.48v.73ZM193.17,68a2.81,2.81,0,0,1-2.92-2.92,2.92,2.92,0,0,1,5.84,0A2.81,2.81,0,0,1,193.17,68Zm0-5.11a2.23,2.23,0,0,0,0,4.46h0a2.23,2.23,0,0,0,0-4.46Z"/><path class="cls-2" d="M97,30.23,88.59.81,87.53,4.13a1.25,1.25,0,0,0,.08,1.22l-.64.4-.49,2a1,1,0,0,0,.32,1.13l-.64.25s-.9,2-.33,3.08l.41.24-.49.49.49,2s-.17.49.65.81l-.41.73.65,2.11a1.41,1.41,0,0,0,.73.89c.56.16-.41.65-.41.65l.73,2.11s0,.4.73.4l-.4.65,2.75,9.4s1-.32,1,.25l.25.48L90.94,34h3.4s-1.54-.41-1.46-1.3l.49-2a.84.84,0,0,1,1.3,0l1.94,2.75a.57.57,0,0,1,0,1s1.46-1.29.89-1.86c0,0,.33-1.54-.48-2.27Z"/><path class="cls-2" d="M88.67,26.42,90,31s-.9.08-1.06.08-.32-.48-.32-.48l-.17.48a3.17,3.17,0,0,1-.89,0c-.24,0-.32-.56-.32-.56s-.08.48-.32.56H86l2.68-4.7Z"/><path class="cls-2" d="M93.29,13.94s3.08,11.18,3.4,11.35l3.41-12.73a3.53,3.53,0,0,0-.25-3.16L97,0,95.8,4.7a1.82,1.82,0,0,1,.24.73c0,1,.25.32.25.32l-.81.09L95,7.62l.41.57s-.49,0-.65.32l-.41,1.86.41.65a1.11,1.11,0,0,0-.81.41l-.65,2.51Z"/></g></g></g></svg>