<svg xmlns="http://www.w3.org/2000/svg" viewBox="0 0 273.2 36.6"><defs><style>.cls-1{opacity:0.6;}.cls-2{fill:#fff;fill-rule:evenodd;}</style></defs><g id="Capa_2" data-name="Capa 2"><g id="Footer"><g class="cls-1"><path class="cls-2" d="M18.47,18.58c-.56,2.57-2.13,4.48-4.93,4.48-4.14,0-4.7-3.81-4.7-6.16,0-4,1.9-9.74,6.83-9.74,2.68,0,3.92,1.57,3.8,4.26H28C27.76,2.8,22.05,0,15.67,0,5.82,0,0,7.72,0,17c0,7.84,4,13.21,12.42,13.21,12,0,14.22-8.73,14.78-11.64Z"/><path class="cls-2" d="M26.64,29.55H34.7l4.36-21H31l-4.36,21ZM40.63.67h-8l-1.12,5.6h8L40.63.67Z"/><path class="cls-2" d="M53.27,2.24H45.33L43.87,8.51H40.4l-1,4.92h3.47L41,22.05A23.5,23.5,0,0,0,40.63,25a4.57,4.57,0,0,0,2.12,3.92,9.92,9.92,0,0,0,5,.89c1.46-.11,2.91-.33,4.37-.56l1.11-5.82a14.58,14.58,0,0,1-2.57.11c-1.23,0-1.57-.44-1.57-1.11a12.17,12.17,0,0,1,.34-2.13l1.45-6.83h4.26l1-4.92H51.93l1.34-6.27Z"/><path class="cls-2" d="M79,8.51H70.73L65.36,21.15,63.91,8.51H55.85l3.69,19.25c0,2.12-1.23,2.12-2.91,2.12h-2l-1.23,6.27c1.23.11,2.57.11,3.8.11,7.16,0,8.4-2,10.3-5.48L79,8.51Z"/><path class="cls-2" d="M94.46,10.52h.11l1,8.62H90l4.48-8.62Zm-19,19h9.18l2.13-4.14h9.4l.45,4.14h8.73L100.84.67H92.11L75.43,29.55Z"/><path class="cls-2" d="M105.32,29.55h7.94l4.37-21h-7.95l-4.36,21Zm14-28.88h-8L110,6.27h8.06l1.23-5.6Z"/><path class="cls-2" d="M115.73,29.55h8.06l1.79-8.84c.89-4.37,2.57-5.82,5.93-5.82a9.58,9.58,0,0,1,3.13.56l1.46-7.17a15.84,15.84,0,0,0-2.8-.22c-2,0-4.7,1.57-6.16,3.8h0l.79-3.35h-7.84l-4.36,21Z"/><polygon class="cls-2" points="133.52 29.55 141.47 29.55 147.4 0.67 139.45 0.67 133.52 29.55 133.52 29.55"/><path class="cls-2" d="M144.16,29.55h8.05l4.37-21h-8.06l-4.36,21Zm14-28.88h-8L149,6.27h7.94l1.24-5.6Z"/><path class="cls-2" d="M154.56,29.55h8.06L165,18.36c.45-2.13,1.35-3.92,3.92-3.92a1.91,1.91,0,0,1,2.13,2,27.75,27.75,0,0,1-.56,3.47l-2.13,9.63h8.06L179,17.68a36.08,36.08,0,0,0,.56-4c0-4-3.24-5.6-6.83-5.6a8.69,8.69,0,0,0-6.6,3.13h0l.67-2.68h-7.83l-4.37,21Z"/><path class="cls-2" d="M188,16.68a4.08,4.08,0,0,1,4.14-3.47,2.71,2.71,0,0,1,3,2.79,1.72,1.72,0,0,1-.11.68Zm5.71,6.71a3.51,3.51,0,0,1-3.14,1.46c-2.46,0-3.24-1.79-3.24-4h14.88a10.1,10.1,0,0,0,.45-3.58c0-6.61-5.71-9.18-10.19-9.18-5.25,0-12.64,3.13-12.64,12.76,0,5,3,9.18,10.41,9.18,9.06,0,10.63-5.15,11.08-6.61Z"/><path class="cls-2" d="M67.94,36.49V32.68H221.27l-8.51-12.87,7.17-2.8L273.2,36.6,67.94,36.49ZM1.23,32.57H50.48v3.69H1.23V32.57Z"/></g></g></g></svg>