<svg xmlns="http://www.w3.org/2000/svg" viewBox="0 0 246.59 64.33"><defs><style>.cls-1{opacity:0.6;}.cls-2{fill:#fff;fill-rule:evenodd;}</style></defs><g id="Capa_2" data-name="Capa 2"><g id="Footer"><g class="cls-1"><path class="cls-2" d="M206.33,17.06a22.08,22.08,0,0,1,2.56.21,45.26,45.26,0,0,0-12.6-1.88,43.9,43.9,0,0,0-13.35,2.09v.42a54,54,0,0,1,13.77-1.67,48.93,48.93,0,0,1,9.62.83Z"/><path class="cls-2" d="M210.17,17.9a22.56,22.56,0,0,0-3.84-.84,56.74,56.74,0,0,0-11,.31A65.17,65.17,0,0,0,182.94,20v2.09a45,45,0,0,1,15.16-4.28,45.91,45.91,0,0,1,12.07.11Z"/><path class="cls-2" d="M224.27,25.51c0-.1-.11-.1-.11-.2a41.57,41.57,0,0,0-4.16-3c0,.21.1.42.1.63h0a2.44,2.44,0,0,0-.21-.73c-.64-.32-1.28-.73-1.92-1.05-5.13-1.67-12.71-1.77-20.83.11a48.81,48.81,0,0,0-14.2,5.42v.84a59.31,59.31,0,0,1,15.16-4.8c11.64-2,22-.73,26.17,2.81Z"/><path class="cls-2" d="M231.85,33.44a44.16,44.16,0,0,0-3.52-4.17c-7.26-4.69-20.19-5.11-33.43-.42a57.54,57.54,0,0,0-12,5.95v1.67a63.72,63.72,0,0,1,13.24-5.95c15.06-4.69,29.48-3.23,35.67,2.92Z"/><path class="cls-2" d="M237.41,44.29A38.47,38.47,0,0,0,235,38.56C228.11,32,213.06,31,198,37a56.36,56.36,0,0,0-15.06,9v1.78a56.87,56.87,0,0,1,17.19-8.56c16.45-5,32-2.61,37.28,5.11Z"/><path class="cls-2" d="M198.85,50.87C216.05,43,234,44.92,238.9,55a17.09,17.09,0,0,1,.75,2.51A34.2,34.2,0,0,0,238.9,50c-4.91-9.39-23-10-40.26-1.46a55.52,55.52,0,0,0-15.7,11.17v2.19a53,53,0,0,1,15.91-11.06Z"/><path class="cls-2" d="M238.58,60.47c-3.31-7.93-16.87-10-30.33-4.8a40.19,40.19,0,0,0-12.6,8h1.81a38,38,0,0,1,11.11-5.63c12.82-4.18,25.1-1.67,28,5.63h2.67c0-.1,0-.21.11-.21a9.71,9.71,0,0,0-.75-3Z"/><path class="cls-2" d="M237.41,15.29c-27.77-4.28-47.85,3.34-54.47,6.36V25c23.6-13,54.47-9.7,54.47-9.7Z"/><path class="cls-2" d="M241.25,22.07c-29.8-5.32-52,4.9-58.31,8.24V34c22.43-15.24,58.31-11.9,58.31-11.9Z"/><path class="cls-2" d="M246.59,30.1c-32.68-6.05-55.86,6.26-63.65,11.27v4c27-20.45,63.65-15.24,63.65-15.24Z"/><path class="cls-2" d="M84.14,1.62a4.06,4.06,0,0,0,1.93,0A1.64,1.64,0,0,0,86.71.37c.32-.21.74,0,1.17-.11V9.45c-1.92.83-1.07-1.36-1.6-2a8.15,8.15,0,0,0-6.73-5.53,8,8,0,0,0-7.48,3C69.19,9.45,69,16.64,72.18,21a8.71,8.71,0,0,0,8.44,3.13c2.78-.42,5.13-2.09,7.26-4.07a5.17,5.17,0,0,0,.86.62c-2.57,4.6-7.59,6.37-12.61,6.47A15.39,15.39,0,0,1,71.22,26c-4.17-.84-7.69-4.91-8.54-8.87A15,15,0,0,1,65.77,4c4.38-4.8,12.82-4.9,18.37-2.4Z"/><path class="cls-2" d="M114.47,11.22a11.62,11.62,0,0,0-6.19-4c-5.45-1-11.75-.63-15.17,4.17-2.13,2.5-2,6.36-1.06,9.39C94,25.41,99,26.87,103.58,27.29c4.59-.11,9.29-1.36,11.43-5.74a9.75,9.75,0,0,0-.54-10.33Zm-7.36,12.52a3.78,3.78,0,0,1-3.42,1.77,4.58,4.58,0,0,1-3.63-2.19c-2-3.86-2.14-9.81.53-13.35A4.42,4.42,0,0,1,105,8.72a4,4,0,0,1,2.14,1.56c2.24,3.76,2.13,9.6,0,13.46Z"/><path class="cls-2" d="M138.29,7.88c-4.16-1.88-8.65.11-11.85,2.61a18,18,0,0,1-.11-3.44c-3,.41-6.19.31-9.29.73l-.22.21c.11,1.14,1.71.41,2.25,1a3.12,3.12,0,0,1,1.39,3c-.11,6.58-.11,13.46-.11,20.14a2.76,2.76,0,0,1-1.92,2.09c-.54.21-1.18.1-1.61.52-.1.21,0,.52.22.52l12.71.11c.21,0,.21-.32.21-.52-.53-.42-1.49-.32-2.13-.63a3.15,3.15,0,0,1-1.71-2.3c0-2.08,0-4.48.1-6.67.11-.21-.32-.63.11-.73a5.25,5.25,0,0,0,1.28,1.35c3.42,2,8.87,2.09,12.18-.1,2.88-2,3.74-4.91,4.06-7.93.1-4.18-1.39-8.45-5.56-10Zm-2.56,15.55a5.6,5.6,0,0,1-5.45,1.67,7.29,7.29,0,0,1-4-2.92c.21-2.93.11-5.95.11-8.77,1.39-2.19,3.73-4,6.51-3.44a5.81,5.81,0,0,1,3.42,2.71c1.6,3.13,1.07,7.83-.64,10.75Z"/><path class="cls-2" d="M166.6,25c-.54-.52-.43-1.46-.43-2.08-.75-4.28,1.17-9.29-1.39-12.73-1.92-2.4-4.91-2.72-8-2.72-3.31.32-7.37,1.57-8.22,5.22a.83.83,0,0,0,.53.21,7.11,7.11,0,0,1,7.26-2.4,4.68,4.68,0,0,1,2.89,2.92c.1.52.1,1.25-.43,1.46-4.06.94-8.54,1.36-11.54,4.91a5,5,0,0,0-.42,4.27,4.88,4.88,0,0,0,3.84,3.13c3.1.84,6.2-.41,8.65-2.29h.22a5.39,5.39,0,0,0,5.12,2.71c1.82-.52,3.63-1.36,4.49-3-.43-1.88-1.5.73-2.56.41Zm-7.27-2.81c0,.83-.85,1.35-1.49,1.87a2.94,2.94,0,0,1-3.31-.1,3.08,3.08,0,0,1-.75-3.13c.75-2.3,3.2-3.65,5.45-4.07l.1.1a22.62,22.62,0,0,0,0,5.33Z"/><path class="cls-2" d="M39.29,35.11a3.55,3.55,0,0,1,1,4,3.31,3.31,0,0,1-3.31,2.09,4.15,4.15,0,0,1-2.89-1.67,3.67,3.67,0,0,1,.32-3.76,3.75,3.75,0,0,1,4.92-.63Z"/><path class="cls-2" d="M89.8,36.36a3.6,3.6,0,0,1,.32,2.82,3.55,3.55,0,0,1-2.77,2.51,4.14,4.14,0,0,1-3.21-1,3.37,3.37,0,0,1-.85-3.44,3.78,3.78,0,0,1,2.56-2.5,4,4,0,0,1,4,1.66Z"/><path class="cls-2" d="M75.06,60.57A2.89,2.89,0,0,0,76.35,62c.53.21,1.28,0,1.71.42a.64.64,0,0,1-.33.63l-12,.1a.79.79,0,0,1-.42-.42c.1-.94,1.38-.41,1.92-1.15A3.57,3.57,0,0,0,68.12,60L68,38.56c-.43-1.15-1.71-1.15-2.78-1.36,0-.21-.32-.42,0-.73l.21-.11L75,35.74l.1,24.83Z"/><path class="cls-2" d="M40.57,60.36l-.22-16.8L31.17,44a1,1,0,0,0-.32.73c1.07.21,2.45.32,2.88,1.57l.11,13.25a4.42,4.42,0,0,1-1,2,3.67,3.67,0,0,1-2.78.31c-2.24-.73-3-2.92-3.52-4.8l-5.77-14.6c-.43-1.05-.64-2-1.07-2.92a12.37,12.37,0,0,0-1.28-2.93l-4.59-.1-.43.52-6,14a76.26,76.26,0,0,1-3.95,9.08A4.65,4.65,0,0,1,.09,62c-.22.21,0,.52.21.63l9,.1.32-.31c.22-1.15-1.28-.31-1.71-.84a1.39,1.39,0,0,1-.74-1.35C7.14,58,8.31,56.09,9,54H17.6a43.87,43.87,0,0,1,2,4.8,2.54,2.54,0,0,1-.32,2.61c-.74.73-2.13,0-2.56,1,.21,0,0,.31.32.31l26.06-.1.11-.52a3,3,0,0,1-2.67-1.78ZM10,51.7l3.42-8.45a3,3,0,0,1,.43,1.25c1.06,2.3,1.92,4.7,2.88,7.1-2.14.21-4.49.1-6.73.1Z"/><path class="cls-2" d="M65,44.29l-1.5,6.27c-.53-.21-1-.63-1.5-.84a4.23,4.23,0,0,0-3.73-.63A5.66,5.66,0,0,0,56,51.18v9.39a1.56,1.56,0,0,0,1.17,1.25c.54.21,1.28.11,1.71.53l-.11.62c-4,.42-8.33,0-12.49,0-.22-.1-.11-.31-.11-.52.64-.52,1.71-.31,2.24-.94a2.17,2.17,0,0,0,.75-1.67V46.28c-.32-1.46-2.13-1.05-3-1.57-.11-.31.21-.52.43-.62,2.13-.21,4.48.1,6.51-.21h.11l2.67-.21a37.72,37.72,0,0,0,.11,5c2-2.19,3.74-5.74,7.47-5a10.65,10.65,0,0,1,1.61.62Z"/><path class="cls-2" d="M164.14,44.71c1.28.63,1.49-1,2.67-.83l.11.41.21,5.33c.11.52-.64.31-1,.2-.86-1.77-2.46-3.86-4.49-4.59-1.71-.41-4.27-.73-5.45,1.05a3.2,3.2,0,0,0-.1,2c1.39,2.4,4.38,1.67,6.41,2.92,2.13.73,4.8,2.51,5.34,4.8a6.65,6.65,0,0,1-2.78,6.89c-3.63,2.5-8.76,1-12.6.21-.86,0-.86,1.35-1.71.83-.53-2.19-.21-4.59-.53-6.68,0-.21.21-.31.32-.52.85.31.74,1.25,1.28,1.77a8.2,8.2,0,0,0,7,4.18c1.07-.21,2.25-.42,2.78-1.57.64-.94.11-2-.53-2.81-2.35-1.78-5.45-2-7.9-3.66a6.79,6.79,0,0,1-2.78-3.23c-.21-2.3.21-4.7,2.24-6,3.21-2.3,7.9-1.67,11.43-.63Z"/><path class="cls-2" d="M118.64,46.38a16.11,16.11,0,0,1,1.18,2.82l.1,11.58a3,3,0,0,0,1.18,1.36c.42.31,1.17-.11,1.6.41a.59.59,0,0,1-.64.73l-11.54-.1c-.32-.1-.21-.42-.1-.63.53-.41,1.49-.1,1.92-.83a2.73,2.73,0,0,0,.85-2.19c-.1-2.09-.1-4.38,0-6.57,0-.53-.1-.94-.1-1.57a3.69,3.69,0,0,0-.86-2.92c-1-1-2.56-1-4-.84a4.09,4.09,0,0,0-2.78,2.3l.11,10.54A2.94,2.94,0,0,0,107,62.24c.43.11,1.07,0,1.39.42,0,.31,0,.52-.32.52H96.21a.64.64,0,0,1,0-.63c.64-.31,1.39,0,1.82-.62.85-.52.74-1.36,1-2.19l-.11-11.59a3.18,3.18,0,0,0-.43-2c-.64-1-1.81-.41-2.56-.94a.46.46,0,0,1,.32-.62c3.31,0,6.2-.52,9.29-.73.11.94,0,2,.11,2.92a15.68,15.68,0,0,1,6.94-2.92,6.85,6.85,0,0,1,6.09,2.5Z"/><path class="cls-2" d="M90.23,60.47a2.75,2.75,0,0,0,1.5,1.77,2.12,2.12,0,0,1,1.38.31c.11.32-.21.53-.42.63H81.58a.81.81,0,0,1-1-.42c0-1.15,1.6-.1,2-.94,1.39-1,.53-2.81.75-4.38.32-3.23-.22-6.36.1-9.7-.1-.84-.32-2-1.28-2.3-.43-.62-1.92.32-1.6-.83l.32-.32c3.1-.1,6.19-.1,9.18-.41l.11,16.59Z"/><path class="cls-2" d="M142.46,60.26a7.73,7.73,0,0,1-7.37-.42c-2.67-1.67-3.53-4.28-3.42-7.2l.21-.21H146.3a9.75,9.75,0,0,0-3.42-6.88c-2.24-1.67-5.12-2.09-8.11-2.09-3.31.42-6.52,1.46-8.55,4.38a11.49,11.49,0,0,0,0,11.69,10.87,10.87,0,0,0,9.62,4.8c4.27-.21,8.75-2.19,10.25-6.37L145,57.34a11.12,11.12,0,0,1-2.56,2.92Zm-8.65-14.82c1.49-.52,3.84-.62,4.8,1.05a8.43,8.43,0,0,1,.86,4.07c-2.57.1-5.24.1-7.69,0-.11-2.09.32-3.87,2-5.12Z"/></g></g></g></svg>